<svg width="100" height="100" viewBox="0 0 100 100" fill="none" xmlns="http://www.w3.org/2000/svg">
<circle opacity="0.07" cx="50" cy="50" r="50" fill="#4D592B"/>
<path d="M52.9715 32.3771L52.9296 32.2479L53.1426 32.523C53.3254 32.7276 53.4763 32.6823 53.6054 32.523C53.6054 32.523 54.7341 31.2266 53.8503 29.7173C53.3639 28.7178 51.4454 26.3398 50.4358 25.5952C48.6112 24.4363 47.434 25.3268 47.434 25.3268C47.2881 25.4358 47.1807 25.5952 47.2881 25.7427L47.5732 26.0362C44.1302 26.7255 43.6237 29.407 43.399 30.5944L43.3621 30.7906L42.8993 34.0105C42.7517 35.1341 43.3621 35.7429 44.4354 35.7429H47.9371C49.1579 35.7596 51.7003 35.7915 52.9715 32.3771Z" fill="#474747"/>
<path d="M41.7049 30.5544L41.3309 33.1572L29.4777 44.1216C29.0278 44.4973 28.6916 44.9909 28.5067 45.5471C28.4353 45.7546 28.3842 45.9686 28.3541 46.186V47.0413C28.8085 47.0782 29.3334 47.0413 29.9053 46.9139L67.4104 36.154C67.5352 36.1182 67.6666 36.1118 67.7942 36.1354C67.9218 36.159 68.0423 36.2119 68.146 36.2899C68.2497 36.368 68.3339 36.469 68.3919 36.5851C68.4499 36.7012 68.4802 36.8292 68.4804 36.959V45.0859C68.4812 45.2659 68.4239 45.4413 68.3169 45.5861C68.2099 45.7308 68.059 45.8372 67.8867 45.8892C60.709 48.0526 32.1743 56.6507 31.4733 56.8402C30.6801 57.0582 28.9243 57.3869 28.3541 57.3131V62.5706C28.8656 62.6411 29.3972 62.6209 29.9053 62.4851L67.4088 51.6263C67.5336 51.5902 67.6652 51.5836 67.793 51.607C67.9209 51.6304 68.0415 51.6833 68.1455 51.7613C68.2494 51.8394 68.3338 51.9406 68.3919 52.0569C68.45 52.1731 68.4803 52.3013 68.4804 52.4313V60.2328L69.7449 59.8706L69.7566 59.8673L69.827 59.8438C70.2376 59.7086 70.6328 59.5304 71.006 59.3122C71.7657 58.8594 71.8344 58.5525 71.8344 58.5139V36.6722C71.8344 36.3066 71.6835 35.6593 71.2861 35.0338C70.9138 34.4468 70.3855 33.9722 69.6929 33.7425L55.8456 30.4957C55.7844 29.9433 55.6097 29.4094 55.3325 28.9277C54.992 28.2552 54.3212 27.3345 53.6739 26.543L70.523 30.4924C70.5625 30.5021 70.6017 30.5133 70.6404 30.5259C72.2587 31.029 73.3974 32.1023 74.1169 33.236C74.8212 34.3428 75.1885 35.6056 75.1885 36.6722V58.5139C75.1885 60.4928 73.6071 61.6667 72.7182 62.195C72.0958 62.5616 71.4336 62.8558 70.7444 63.0721L70.7008 63.0855L70.6857 63.0888L70.6806 63.0905C70.6806 63.0905 70.4358 63.1609 70.6773 63.0905L29.7443 74.8398C29.7204 74.8465 29.6964 74.8526 29.6722 74.8582C28.4765 75.1433 27.1181 75.0679 26.1169 74.0449C25.2197 73.1292 25 71.8228 25 70.6573V46.1139L25.0017 46.0234V45.9982L25.0067 45.9613C25.0167 45.8117 25.0352 45.6628 25.0621 45.5152C25.109 45.2435 25.1912 44.8763 25.3354 44.4553C25.7042 43.366 26.3552 42.3938 27.2221 41.6379L42.9794 27.0645C42.9435 27.116 42.9082 27.168 42.8738 27.2205C42.1091 28.4045 41.876 29.6404 41.7619 30.2459L41.7552 30.2861C41.7394 30.3757 41.7226 30.4652 41.7049 30.5544Z" fill="#474747"/>
</svg>
