<svg width="30" height="30" viewBox="0 0 30 30" fill="none" xmlns="http://www.w3.org/2000/svg">
<path d="M27.9045 13.0918C27.0855 12.1048 25.8032 11.4916 24.558 11.4916H21.2639C22.0053 10.3103 22.5632 9.12146 22.9032 7.98943C23.4221 6.26197 23.4039 4.75611 22.8506 3.63463C22.2275 2.37146 20.9647 1.67578 19.295 1.67578C19.1093 1.67579 18.9278 1.73093 18.7735 1.83422C18.6192 1.93752 18.4991 2.08431 18.4283 2.25598C17.1282 5.40932 13.7371 9.94154 10.5422 12.9272C10.2162 11.7947 9.17141 10.9637 7.93549 10.9637H3.92182C2.42598 10.9637 1.20898 12.1806 1.20898 13.6764V25.6088C1.20898 27.1046 2.42598 28.3216 3.92182 28.3216H7.93549C8.85055 28.3216 9.66066 27.8657 10.1523 27.1696C10.8959 27.8851 11.8818 28.3216 12.9621 28.3216H23.0684C24.1857 28.3216 25.1806 27.8459 25.9457 26.9459C26.5764 26.2039 27.0244 25.2016 27.2411 24.0472L28.7307 16.1121C28.9306 15.0474 28.6371 13.9748 27.9045 13.0918ZM8.77326 25.6089C8.77326 26.0708 8.39744 26.4467 7.93549 26.4467H3.92182C3.45986 26.4467 3.08398 26.0708 3.08398 25.6089V13.6765C3.08398 13.2145 3.45986 12.8387 3.92182 12.8387H7.93549C8.39744 12.8387 8.77326 13.2145 8.77326 13.6765V25.6089ZM26.8879 15.7661L25.3983 23.7013C25.1492 25.0286 24.4062 26.4467 23.0684 26.4467H12.9621C11.6863 26.4467 10.6483 25.2928 10.6483 23.8743V15.3348C14.1822 12.4011 18.1398 7.36271 19.8869 3.59689C20.8191 3.75463 21.0751 4.27359 21.1692 4.46414C21.7777 5.6976 21.2727 8.5377 18.726 11.8586C18.6195 11.9974 18.554 12.1633 18.5369 12.3374C18.5198 12.5116 18.5517 12.687 18.6291 12.8439C18.7066 13.0008 18.8263 13.1329 18.9749 13.2253C19.1235 13.3177 19.295 13.3666 19.47 13.3666H24.5581C25.2495 13.3666 25.9967 13.7286 26.4615 14.289C26.7233 14.6046 27.0098 15.1169 26.8879 15.7661Z" fill="#454B58"/>
</svg>
