<svg width="30" height="30" viewBox="0 0 30 30" fill="none" xmlns="http://www.w3.org/2000/svg">
<path d="M27.9045 16.9082C27.0855 17.8952 25.8032 18.5084 24.558 18.5084H21.2639C22.0053 19.6897 22.5632 20.8785 22.9032 22.0106C23.4221 23.738 23.4039 25.2439 22.8506 26.3654C22.2275 27.6285 20.9647 28.3242 19.295 28.3242C19.1093 28.3242 18.9278 28.2691 18.7735 28.1658C18.6192 28.0625 18.4991 27.9157 18.4283 27.744C17.1282 24.5907 13.7371 20.0585 10.5422 17.0728C10.2162 18.2053 9.17141 19.0363 7.93549 19.0363H3.92182C2.42598 19.0363 1.20898 17.8194 1.20898 16.3236V4.39119C1.20898 2.89535 2.42598 1.67836 3.92182 1.67836H7.93549C8.85055 1.67836 9.66066 2.13428 10.1523 2.83037C10.8959 2.11488 11.8818 1.67836 12.9621 1.67836H23.0684C24.1857 1.67836 25.1806 2.15408 25.9457 3.05408C26.5764 3.79605 27.0244 4.79842 27.2411 5.95277L28.7307 13.8879C28.9306 14.9526 28.6371 16.0252 27.9045 16.9082ZM8.77326 4.39113C8.77326 3.92918 8.39744 3.5533 7.93549 3.5533H3.92182C3.45986 3.5533 3.08398 3.92918 3.08398 4.39113V16.3235C3.08398 16.7855 3.45986 17.1613 3.92182 17.1613H7.93549C8.39744 17.1613 8.77326 16.7855 8.77326 16.3235V4.39113ZM26.8879 14.2339L25.3983 6.29865C25.1492 4.97145 24.4062 3.5533 23.0684 3.5533H12.9621C11.6863 3.5533 10.6483 4.70724 10.6483 6.12568V14.6652C14.1822 17.5989 18.1398 22.6373 19.8869 26.4031C20.8191 26.2454 21.0751 25.7264 21.1692 25.5359C21.7777 24.3024 21.2727 21.4623 18.726 18.1414C18.6195 18.0026 18.554 17.8367 18.5369 17.6626C18.5198 17.4884 18.5517 17.313 18.6291 17.1561C18.7066 16.9992 18.8263 16.8671 18.9749 16.7747C19.1235 16.6823 19.295 16.6334 19.47 16.6334H24.5581C25.2495 16.6334 25.9967 16.2714 26.4615 15.711C26.7233 15.3954 27.0098 14.8831 26.8879 14.2339Z" fill="#454B58"/>
</svg>
