<svg width="35" height="35" viewBox="0 0 35 35" fill="none" xmlns="http://www.w3.org/2000/svg">
<circle cx="17.5" cy="17.5" r="17.5" fill="#AD343E"/>
<path d="M25.2487 13.7313C24.7249 13.9641 24.172 14.1096 23.59 14.1969C24.172 13.8477 24.6376 13.2948 24.8413 12.6256C24.2884 12.9457 23.6773 13.1784 23.0081 13.3239C22.4843 12.7711 21.7277 12.4219 20.9129 12.4219C19.3416 12.4219 18.0613 13.7022 18.0613 15.2736C18.0613 15.5063 18.0904 15.71 18.1486 15.9137C15.7916 15.7973 13.6673 14.6625 12.2415 12.9166C12.0087 13.353 11.8632 13.8186 11.8632 14.3424C11.8632 15.3318 12.3579 16.2047 13.1436 16.7285C12.678 16.6994 12.2415 16.583 11.8341 16.3793V16.4084C11.8341 17.8051 12.8235 18.9691 14.1329 19.231C13.9001 19.2892 13.6383 19.3183 13.3764 19.3183C13.2018 19.3183 12.9981 19.2892 12.8235 19.2601C13.2018 20.3949 14.2493 21.2388 15.5006 21.2388C14.5112 21.9954 13.2891 22.4609 11.9505 22.4609C11.7177 22.4609 11.4849 22.4609 11.2812 22.4319C12.5616 23.2466 14.0456 23.7122 15.6752 23.7122C20.942 23.7122 23.8228 19.3474 23.8228 15.5645C23.8228 15.4481 23.8228 15.3027 23.8228 15.1863C24.3757 14.808 24.8704 14.3133 25.2487 13.7313Z" fill="white"/>
</svg>
