<svg width="35" height="35" viewBox="0 0 35 35" fill="none" xmlns="http://www.w3.org/2000/svg">
<circle cx="17.5" cy="17.5" r="17.5" fill="#AD343E"/>
<path d="M17.499 10.5649C19.7599 10.5649 20.0276 10.5733 20.9208 10.6141C21.4578 10.6206 21.9897 10.7192 22.4933 10.9056C22.8586 11.0465 23.1903 11.2622 23.4671 11.5391C23.744 11.8159 23.9597 12.1476 24.1006 12.5129C24.287 13.0165 24.3856 13.5484 24.3921 14.0854C24.4325 14.9786 24.4413 15.2463 24.4413 17.5072C24.4413 19.7681 24.4329 20.0358 24.3921 20.929C24.3856 21.466 24.287 21.9979 24.1006 22.5016C23.9597 22.8668 23.744 23.1985 23.4671 23.4754C23.1903 23.7522 22.8586 23.968 22.4933 24.1088C21.9897 24.2952 21.4578 24.3938 20.9208 24.4004C20.028 24.4407 19.7603 24.4495 17.499 24.4495C15.2377 24.4495 14.97 24.4411 14.0772 24.4004C13.5402 24.3938 13.0083 24.2952 12.5046 24.1088C12.1394 23.968 11.8077 23.7522 11.5308 23.4754C11.254 23.1985 11.0382 22.8668 10.8974 22.5016C10.711 21.9979 10.6124 21.466 10.6058 20.929C10.5655 20.0358 10.5567 19.7681 10.5567 17.5072C10.5567 15.2463 10.5651 14.9786 10.6058 14.0854C10.6124 13.5484 10.711 13.0165 10.8974 12.5129C11.0382 12.1476 11.254 11.8159 11.5308 11.5391C11.8077 11.2622 12.1394 11.0465 12.5046 10.9056C13.0083 10.7192 13.5402 10.6206 14.0772 10.6141C14.9704 10.5737 15.2381 10.5649 17.499 10.5649ZM17.499 9.03906C15.2006 9.03906 14.9111 9.04874 14.0079 9.08987C13.3051 9.10385 12.6097 9.23692 11.9514 9.48342C11.3867 9.69619 10.8752 10.0296 10.4526 10.4604C10.0214 10.8832 9.6877 11.3949 9.4748 11.96C9.2283 12.6183 9.09523 13.3137 9.08125 14.0165C9.04093 14.9189 9.03125 15.2084 9.03125 17.5068C9.03125 19.8052 9.04093 20.0947 9.08206 20.9979C9.09604 21.7007 9.22911 22.3961 9.4756 23.0544C9.68827 23.6194 10.0217 24.1312 10.4526 24.554C10.8754 24.9849 11.3872 25.3183 11.9522 25.531C12.6105 25.7775 13.3059 25.9106 14.0087 25.9245C14.9119 25.9649 15.2002 25.9754 17.4998 25.9754C19.7994 25.9754 20.0877 25.9657 20.9909 25.9245C21.6937 25.9106 22.3891 25.7775 23.0474 25.531C23.6097 25.313 24.1204 24.9801 24.5467 24.5535C24.973 24.1269 25.3056 23.616 25.5232 23.0536C25.7697 22.3953 25.9028 21.6999 25.9167 20.9971C25.9571 20.0947 25.9667 19.8052 25.9667 17.5068C25.9667 15.2084 25.9571 14.9189 25.9159 14.0157C25.9019 13.3129 25.7689 12.6175 25.5224 11.9592C25.3097 11.3942 24.9763 10.8824 24.5454 10.4596C24.1225 10.0287 23.6108 9.69528 23.0458 9.48261C22.3875 9.23611 21.6921 9.10304 20.9893 9.08906C20.0869 9.04874 19.7974 9.03906 17.499 9.03906Z" fill="white"/>
<path d="M17.4968 13.1641C16.6368 13.1641 15.7961 13.4191 15.081 13.8969C14.3659 14.3747 13.8086 15.0538 13.4794 15.8484C13.1503 16.643 13.0642 17.5173 13.232 18.3608C13.3998 19.2043 13.8139 19.9791 14.4221 20.5872C15.0302 21.1954 15.805 21.6095 16.6485 21.7773C17.492 21.9451 18.3663 21.859 19.1609 21.5298C19.9554 21.2007 20.6346 20.6434 21.1124 19.9283C21.5902 19.2132 21.8452 18.3725 21.8452 17.5124C21.8452 16.3592 21.3871 15.2532 20.5716 14.4377C19.7561 13.6222 18.6501 13.1641 17.4968 13.1641ZM17.4968 20.335C16.9386 20.335 16.3929 20.1695 15.9287 19.8593C15.4645 19.5492 15.1027 19.1084 14.8891 18.5926C14.6755 18.0768 14.6196 17.5093 14.7285 16.9618C14.8374 16.4143 15.1062 15.9113 15.501 15.5166C15.8957 15.1218 16.3986 14.853 16.9462 14.7441C17.4937 14.6352 18.0612 14.6911 18.577 14.9047C19.0927 15.1184 19.5336 15.4801 19.8437 15.9443C20.1539 16.4085 20.3194 16.9542 20.3194 17.5124C20.3194 18.261 20.022 18.979 19.4927 19.5083C18.9634 20.0377 18.2454 20.335 17.4968 20.335Z" fill="white"/>
<path d="M22.0318 14.0049C22.5929 14.0049 23.0479 13.55 23.0479 12.9888C23.0479 12.4276 22.5929 11.9727 22.0318 11.9727C21.4706 11.9727 21.0156 12.4276 21.0156 12.9888C21.0156 13.55 21.4706 14.0049 22.0318 14.0049Z" fill="white"/>
</svg>
