<svg width="35" height="35" viewBox="0 0 35 35" fill="none" xmlns="http://www.w3.org/2000/svg">
<circle cx="17.5" cy="17.5" r="17.5" fill="#AD343E"/>
<path fill-rule="evenodd" clip-rule="evenodd" d="M18.2796 9.03906C13.7909 9.03906 10.1797 12.6503 10.1797 17.1389C10.1797 20.7164 12.5084 23.7538 15.7146 24.8338C16.1196 24.9013 16.2546 24.6651 16.2546 24.4288C16.2546 24.2263 16.2546 23.7201 16.2546 23.0451C13.9934 23.5513 13.5209 21.9651 13.5209 21.9651C13.1496 21.0201 12.6096 20.7839 12.6096 20.7839C11.8672 20.2776 12.6771 20.2776 12.6771 20.2776C13.4871 20.3451 13.9259 21.1214 13.9259 21.1214C14.6346 22.3701 15.8158 21.9989 16.2883 21.7964C16.3558 21.2564 16.5583 20.9189 16.7946 20.7164C15.0059 20.5139 13.1159 19.8051 13.1159 16.7002C13.1159 15.8227 13.4196 15.0802 13.9596 14.5402C13.8921 14.3377 13.5884 13.5277 14.0271 12.3803C14.0271 12.3803 14.7021 12.1778 16.2546 13.224C16.8958 13.0552 17.6046 12.954 18.2796 12.954C18.9545 12.954 19.6633 13.0552 20.3045 13.224C21.857 12.1778 22.532 12.3803 22.532 12.3803C22.9707 13.494 22.7007 14.304 22.5995 14.5402C23.1057 15.114 23.4432 15.8227 23.4432 16.7002C23.4432 19.8051 21.5533 20.4801 19.7308 20.6826C20.0345 20.9189 20.2708 21.4251 20.2708 22.1676C20.2708 23.2476 20.2708 24.1251 20.2708 24.3951C20.2708 24.5976 20.4058 24.8676 20.8445 24.8001C24.0507 23.7538 26.3794 20.7164 26.3794 17.1389C26.3794 12.6503 22.7682 9.03906 18.2796 9.03906Z" fill="white"/>
</svg>
