<svg width="668" height="393" viewBox="0 0 668 393" fill="none" xmlns="http://www.w3.org/2000/svg">
<path d="M86.1606 53.043C93.5174 54.0195 98.7583 56.1354 101.883 59.3906C105.008 62.6133 106.571 66.5033 106.571 71.0605C106.571 74.8366 105.594 78.1895 103.641 81.1191C101.721 84.0488 98.9536 86.3438 95.3403 88.0039C91.7271 89.6315 87.4627 90.4453 82.5474 90.4453C81.2127 90.4453 78.869 90.3965 75.5161 90.2988C72.1632 90.2012 68.7778 90.1523 65.3599 90.1523C59.8911 90.1523 55.757 90.25 52.9575 90.4453V88.4434C55.3664 88.3457 57.1079 88.0853 58.1821 87.6621C59.2889 87.2389 60.0376 86.4577 60.4282 85.3184C60.8514 84.179 61.063 82.3561 61.063 79.8496V30.2402C61.063 27.7337 60.8514 25.9108 60.4282 24.7715C60.0376 23.6322 59.2889 22.8509 58.1821 22.4277C57.1079 22.0046 55.3664 21.7441 52.9575 21.6465V19.6445C55.7244 19.8398 59.7935 19.9375 65.1646 19.9375C67.7687 19.9375 70.6333 19.9049 73.7583 19.8398C76.9159 19.7747 79.0806 19.7422 80.2524 19.7422C84.8097 19.7422 88.6672 20.4095 91.8247 21.7441C94.9823 23.0462 97.3586 24.8854 98.9536 27.2617C100.549 29.6055 101.346 32.3398 101.346 35.4648C101.346 39.306 100.125 42.7565 97.6841 45.8164C95.2752 48.8763 91.4341 51.2201 86.1606 52.8477V53.043ZM77.0786 52.8477C82.5148 52.8477 86.3234 51.3665 88.5044 48.4043C90.6854 45.4421 91.7759 41.487 91.7759 36.5391C91.7759 31.526 90.6691 27.7988 88.4556 25.3574C86.242 22.8835 82.6776 21.6465 77.7622 21.6465C75.6789 21.6465 74.1164 21.8906 73.0747 22.3789C72.033 22.8346 71.3169 23.6647 70.9263 24.8691C70.5356 26.0736 70.3403 27.8639 70.3403 30.2402V52.8477H77.0786ZM70.3403 79.8496C70.3403 82.2585 70.5356 84.0326 70.9263 85.1719C71.3169 86.3112 72.033 87.0924 73.0747 87.5156C74.1164 87.9388 75.7114 88.1504 77.8599 88.1504C90.3273 88.1504 96.561 82.3073 96.561 70.6211C96.561 65.3802 95.1287 61.3926 92.2642 58.6582C89.4321 55.9238 84.9237 54.5566 78.7388 54.5566H70.3403V79.8496ZM157.352 78.4336C156.571 80.7773 155.318 82.9746 153.592 85.0254C151.9 87.0436 149.767 88.6875 147.196 89.957C144.657 91.2266 141.808 91.8613 138.651 91.8613C133.898 91.8613 129.78 90.7871 126.297 88.6387C122.847 86.4577 120.21 83.4141 118.387 79.5078C116.564 75.569 115.653 71.0443 115.653 65.9336C115.653 60.1393 116.581 55.11 118.436 50.8457C120.292 46.5814 122.912 43.3099 126.297 41.0312C129.715 38.7201 133.703 37.5645 138.26 37.5645C144.25 37.5645 148.856 39.3874 152.079 43.0332C155.334 46.6465 156.961 52.1478 156.961 59.5371H125.711C125.484 61.2624 125.37 63.3945 125.37 65.9336C125.37 70.3281 126.086 74.1693 127.518 77.457C128.983 80.7448 130.887 83.2676 133.231 85.0254C135.575 86.7832 138.049 87.6621 140.653 87.6621C147.359 87.6621 152.258 84.3255 155.35 77.6523L157.352 78.4336ZM147.342 57.6328C147.472 54.3125 147.196 51.2689 146.512 48.502C145.829 45.735 144.754 43.5378 143.29 41.9102C141.825 40.2826 140.018 39.4688 137.87 39.4688C135.819 39.4688 133.931 40.1361 132.206 41.4707C130.48 42.7728 129.015 44.791 127.811 47.5254C126.639 50.2272 125.89 53.5964 125.565 57.6328H147.342ZM169.852 71.1582C170.34 75.2923 171.04 78.694 171.952 81.3633C172.863 84.0326 174.263 86.1159 176.151 87.6133C178.039 89.1107 180.578 89.8594 183.768 89.8594C185.233 89.8594 186.633 89.5501 187.967 88.9316C189.334 88.2806 190.458 87.2552 191.336 85.8555C192.215 84.4232 192.655 82.584 192.655 80.3379C192.655 78.515 192.183 76.8874 191.239 75.4551C190.327 73.9902 189.123 72.6882 187.625 71.5488C186.128 70.377 184.028 68.9447 181.327 67.252C178.039 65.1686 175.516 63.4596 173.758 62.125C172.033 60.7904 170.568 59.1628 169.364 57.2422C168.159 55.3216 167.557 53.0592 167.557 50.4551C167.557 47.623 168.224 45.2467 169.559 43.3262C170.894 41.373 172.668 39.9245 174.881 38.9805C177.127 38.0365 179.618 37.5645 182.352 37.5645C184.696 37.5645 186.795 37.9388 188.651 38.6875C190.539 39.4362 192.069 40.2826 193.241 41.2266C193.957 41.7799 194.543 42.0566 194.999 42.0566C196.17 42.0566 196.919 40.5918 197.245 37.6621H199.54C199.279 40.9173 199.149 46.5814 199.149 54.6543H196.854C196.138 50.2598 194.722 46.6302 192.606 43.7656C190.49 40.901 187.365 39.4688 183.231 39.4688C180.822 39.4688 178.853 40.1523 177.323 41.5195C175.793 42.8542 175.028 44.7259 175.028 47.1348C175.028 49.446 175.809 51.3828 177.372 52.9453C178.967 54.4753 180.871 55.9401 183.084 57.3398C185.331 58.7396 186.926 59.7487 187.87 60.3672C190.93 62.3529 193.387 64.127 195.243 65.6895C197.131 67.2194 198.644 68.9935 199.784 71.0117C200.956 72.9974 201.542 75.276 201.542 77.8477C201.542 80.8099 200.76 83.349 199.198 85.4648C197.668 87.5482 195.601 89.1432 192.997 90.25C190.392 91.3242 187.544 91.8613 184.452 91.8613C181.489 91.8613 178.853 91.3893 176.542 90.4453C175.239 89.7943 173.872 88.8991 172.44 87.7598C172.18 87.4993 171.87 87.3691 171.512 87.3691C170.536 87.3691 169.852 88.6224 169.461 91.1289H167.167C167.427 87.3203 167.557 80.6634 167.557 71.1582H169.852ZM240.116 39.0293V41.0312H225.321V79.752C225.321 82.7793 225.858 84.9603 226.932 86.2949C228.006 87.597 229.601 88.248 231.717 88.248C233.801 88.248 235.575 87.418 237.04 85.7578C238.504 84.0977 239.741 81.3633 240.75 77.5547L242.704 78.043C241.076 87.2552 236.747 91.8613 229.715 91.8613C227.469 91.8613 225.614 91.5846 224.149 91.0312C222.684 90.5104 221.382 89.6803 220.243 88.541C218.81 87.0762 217.801 85.2858 217.215 83.1699C216.629 81.0215 216.336 78.1406 216.336 74.5273V41.0312H206.717V39.0293H216.336V23.7461C220.08 23.6484 223.075 23.1764 225.321 22.3301V39.0293H240.116ZM275.467 39.0293C275.467 35.0579 275.63 31.7539 275.956 29.1172C276.281 26.4479 276.802 24.1855 277.518 22.3301C278.267 20.4746 279.292 18.7819 280.594 17.252C281.896 15.6895 283.589 14.4688 285.672 13.5898C287.756 12.6784 290.018 12.2227 292.459 12.2227C295.877 12.2227 298.775 13.1341 301.151 14.957C303.234 16.6497 304.276 18.7168 304.276 21.1582C304.276 22.6882 303.771 23.9577 302.762 24.9668C301.786 25.9434 300.516 26.4316 298.954 26.4316C297.424 26.4316 296.122 25.9434 295.047 24.9668C294.006 23.9902 293.485 22.6882 293.485 21.0605C293.485 19.6934 293.859 18.5703 294.608 17.6914C295.389 16.7799 296.415 16.194 297.684 15.9336C297.489 15.3151 296.952 14.7943 296.073 14.3711C295.194 13.9479 294.087 13.7363 292.752 13.7363C289.79 13.7363 287.625 14.9733 286.258 17.4473C285.51 18.7819 285.021 20.7839 284.793 23.4531C284.566 26.0898 284.452 30.4193 284.452 36.4414V39.0293H295.194V41.0312H284.452V80.1426C284.452 83.235 285.331 85.3835 287.088 86.5879C288.846 87.7598 291.499 88.3457 295.047 88.3457V90.4453C286.844 90.1849 281.717 90.0547 279.667 90.0547C278.039 90.0547 274.1 90.1849 267.85 90.4453V88.3457C269.738 88.3457 271.219 88.1341 272.293 87.7109C273.4 87.2878 274.198 86.5553 274.686 85.5137C275.207 84.472 275.467 83.0234 275.467 81.168V41.0312H267.459V39.0293H275.467ZM323.709 37.5645C328.104 37.5645 331.994 38.5247 335.379 40.4453C338.797 42.3659 341.483 45.3607 343.436 49.4297C345.422 53.4661 346.415 58.5768 346.415 64.7617C346.415 70.9466 345.422 76.0573 343.436 80.0938C341.483 84.1302 338.797 87.1087 335.379 89.0293C331.994 90.9173 328.104 91.8613 323.709 91.8613C319.315 91.8613 315.409 90.9173 311.991 89.0293C308.605 87.1087 305.92 84.1302 303.934 80.0938C301.981 76.0573 301.004 70.9466 301.004 64.7617C301.004 58.5768 301.981 53.4661 303.934 49.4297C305.92 45.3607 308.605 42.3659 311.991 40.4453C315.409 38.5247 319.315 37.5645 323.709 37.5645ZM323.709 39.5664C319.706 39.5664 316.532 41.6172 314.188 45.7188C311.877 49.8203 310.721 56.168 310.721 64.7617C310.721 73.3229 311.877 79.6543 314.188 83.7559C316.532 87.8249 319.706 89.8594 323.709 89.8594C327.713 89.8594 330.871 87.8249 333.182 83.7559C335.526 79.6543 336.698 73.3229 336.698 64.7617C336.698 56.168 335.526 49.8203 333.182 45.7188C330.871 41.6172 327.713 39.5664 323.709 39.5664ZM378.495 37.5645C382.889 37.5645 386.779 38.5247 390.165 40.4453C393.583 42.3659 396.268 45.3607 398.221 49.4297C400.207 53.4661 401.2 58.5768 401.2 64.7617C401.2 70.9466 400.207 76.0573 398.221 80.0938C396.268 84.1302 393.583 87.1087 390.165 89.0293C386.779 90.9173 382.889 91.8613 378.495 91.8613C374.1 91.8613 370.194 90.9173 366.776 89.0293C363.39 87.1087 360.705 84.1302 358.719 80.0938C356.766 76.0573 355.79 70.9466 355.79 64.7617C355.79 58.5768 356.766 53.4661 358.719 49.4297C360.705 45.3607 363.39 42.3659 366.776 40.4453C370.194 38.5247 374.1 37.5645 378.495 37.5645ZM378.495 39.5664C374.491 39.5664 371.317 41.6172 368.973 45.7188C366.662 49.8203 365.506 56.168 365.506 64.7617C365.506 73.3229 366.662 79.6543 368.973 83.7559C371.317 87.8249 374.491 89.8594 378.495 89.8594C382.499 89.8594 385.656 87.8249 387.967 83.7559C390.311 79.6543 391.483 73.3229 391.483 64.7617C391.483 56.168 390.311 49.8203 387.967 45.7188C385.656 41.6172 382.499 39.5664 378.495 39.5664ZM454.325 79.5566C454.325 82.6491 454.878 84.8952 455.985 86.2949C457.124 87.6621 459.11 88.3457 461.942 88.3457V90.4453C459.826 90.25 457.759 90.1523 455.741 90.1523C451.444 90.1523 447.977 90.6243 445.34 91.5684V82.6816C444.103 85.6764 442.28 87.9551 439.872 89.5176C437.495 91.0801 434.582 91.8613 431.131 91.8613C426.9 91.8613 423.254 90.8522 420.194 88.834C417.134 86.8158 414.774 83.7884 413.114 79.752C411.486 75.7155 410.689 70.7188 410.721 64.7617C410.689 58.9349 411.698 53.9707 413.749 49.8691C415.799 45.7676 418.534 42.6914 421.952 40.6406C425.402 38.5898 429.194 37.5645 433.329 37.5645C435.868 37.5645 438.195 38.0527 440.311 39.0293C442.459 39.9733 444.136 41.4544 445.34 43.4727V24.0391C445.34 20.9466 444.771 18.7168 443.631 17.3496C442.525 15.9499 440.555 15.25 437.723 15.25V13.1504C439.839 13.3457 441.906 13.4434 443.924 13.4434C448.221 13.4434 451.688 12.9714 454.325 12.0273V79.5566ZM445.34 47.5742C443.485 42.431 439.758 39.8594 434.159 39.8594C431.457 39.8594 429.064 40.7871 426.981 42.6426C424.93 44.4655 423.319 47.2487 422.147 50.9922C420.975 54.7031 420.405 59.293 420.438 64.7617C420.405 72.7695 421.528 78.7917 423.807 82.8281C426.118 86.832 429.52 88.834 434.012 88.834C435.737 88.834 437.365 88.3945 438.895 87.5156C440.425 86.6367 441.76 85.3346 442.899 83.6094C444.038 81.8516 444.852 79.752 445.34 77.3105V47.5742ZM499.491 39.0293C499.491 35.0579 499.653 31.7539 499.979 29.1172C500.305 26.4479 500.825 24.1855 501.542 22.3301C502.29 20.4746 503.316 18.7819 504.618 17.252C505.92 15.6895 507.612 14.4688 509.696 13.5898C511.779 12.6784 514.042 12.2227 516.483 12.2227C519.901 12.2227 522.798 13.1341 525.174 14.957C527.258 16.6497 528.299 18.7168 528.299 21.1582C528.299 22.6882 527.795 23.9577 526.786 24.9668C525.809 25.9434 524.54 26.4316 522.977 26.4316C521.447 26.4316 520.145 25.9434 519.071 24.9668C518.029 23.9902 517.508 22.6882 517.508 21.0605C517.508 19.6934 517.883 18.5703 518.631 17.6914C519.413 16.7799 520.438 16.194 521.708 15.9336C521.512 15.3151 520.975 14.7943 520.096 14.3711C519.217 13.9479 518.111 13.7363 516.776 13.7363C513.814 13.7363 511.649 14.9733 510.282 17.4473C509.533 18.7819 509.045 20.7839 508.817 23.4531C508.589 26.0898 508.475 30.4193 508.475 36.4414V39.0293H519.217V41.0312H508.475V80.1426C508.475 83.235 509.354 85.3835 511.112 86.5879C512.87 87.7598 515.523 88.3457 519.071 88.3457V90.4453C510.868 90.1849 505.741 90.0547 503.69 90.0547C502.062 90.0547 498.124 90.1849 491.874 90.4453V88.3457C493.762 88.3457 495.243 88.1341 496.317 87.7109C497.424 87.2878 498.221 86.5553 498.709 85.5137C499.23 84.472 499.491 83.0234 499.491 81.168V41.0312H491.483V39.0293H499.491ZM547.733 37.5645C552.127 37.5645 556.017 38.5247 559.403 40.4453C562.821 42.3659 565.506 45.3607 567.459 49.4297C569.445 53.4661 570.438 58.5768 570.438 64.7617C570.438 70.9466 569.445 76.0573 567.459 80.0938C565.506 84.1302 562.821 87.1087 559.403 89.0293C556.017 90.9173 552.127 91.8613 547.733 91.8613C543.338 91.8613 539.432 90.9173 536.014 89.0293C532.629 87.1087 529.943 84.1302 527.958 80.0938C526.004 76.0573 525.028 70.9466 525.028 64.7617C525.028 58.5768 526.004 53.4661 527.958 49.4297C529.943 45.3607 532.629 42.3659 536.014 40.4453C539.432 38.5247 543.338 37.5645 547.733 37.5645ZM547.733 39.5664C543.729 39.5664 540.555 41.6172 538.211 45.7188C535.9 49.8203 534.745 56.168 534.745 64.7617C534.745 73.3229 535.9 79.6543 538.211 83.7559C540.555 87.8249 543.729 89.8594 547.733 89.8594C551.737 89.8594 554.894 87.8249 557.206 83.7559C559.549 79.6543 560.721 73.3229 560.721 64.7617C560.721 56.168 559.549 49.8203 557.206 45.7188C554.894 41.6172 551.737 39.5664 547.733 39.5664ZM594.608 50.3574C595.357 48.2741 596.431 46.2559 597.831 44.3027C599.263 42.3496 600.956 40.7383 602.909 39.4688C604.862 38.1992 606.929 37.5645 609.11 37.5645C610.868 37.5645 612.43 37.9225 613.797 38.6387C615.197 39.3223 616.288 40.2663 617.069 41.4707C617.85 42.6751 618.241 43.9935 618.241 45.4258C618.241 47.1836 617.72 48.681 616.678 49.918C615.637 51.1224 614.253 51.7246 612.528 51.7246C611.063 51.7246 609.81 51.2689 608.768 50.3574C607.726 49.4134 607.206 48.1439 607.206 46.5488C607.206 44.3678 608.345 42.5612 610.624 41.1289C610.168 40.4779 609.468 40.1523 608.524 40.1523C605.887 40.1523 603.511 41.1615 601.395 43.1797C599.279 45.1979 597.619 47.6882 596.415 50.6504C595.21 53.6126 594.608 56.3796 594.608 58.9512V80.1426C594.608 83.235 595.487 85.3835 597.245 86.5879C599.002 87.7598 601.655 88.3457 605.204 88.3457V90.4453C597 90.1849 591.874 90.0547 589.823 90.0547C588.065 90.0547 584.126 90.1849 578.006 90.4453V88.3457C579.894 88.3457 581.375 88.1341 582.45 87.7109C583.556 87.2878 584.354 86.5553 584.842 85.5137C585.363 84.472 585.624 83.0234 585.624 81.168V49.8691C585.624 46.7767 585.054 44.5306 583.915 43.1309C582.808 41.7311 580.838 41.0312 578.006 41.0312V38.9316C580.09 39.127 582.157 39.2246 584.208 39.2246C588.439 39.2246 591.906 38.7689 594.608 37.8574V50.3574ZM145.536 134.932C149.051 135.127 151.851 135.225 153.934 135.225C156.896 135.225 159.435 135.127 161.551 134.932V136.934C160.217 137.096 159.028 137.699 157.987 138.74C156.945 139.782 155.969 141.523 155.057 143.965L138.651 186.934L135.233 195.625C133.963 198.913 132.531 201.257 130.936 202.656C129.048 204.382 126.444 205.244 123.124 205.244C121.138 205.244 119.51 204.707 118.241 203.633C116.971 202.591 116.336 201.126 116.336 199.238C116.336 197.643 116.808 196.357 117.752 195.381C118.696 194.437 119.999 193.965 121.659 193.965C123.124 193.965 124.328 194.372 125.272 195.186C126.249 195.999 126.737 197.155 126.737 198.652C126.737 200.638 125.842 202.135 124.051 203.145C124.181 203.21 124.377 203.242 124.637 203.242C128.316 203.242 131.148 200.638 133.133 195.43L136.698 186.299L118.534 142.646C117.394 140.335 116.255 138.822 115.116 138.105C114.009 137.389 112.886 137.031 111.747 137.031V134.932C114.872 135.355 118.143 135.566 121.561 135.566C124.426 135.566 128.755 135.355 134.549 134.932V137.031C132.922 137.031 131.652 137.096 130.741 137.227C129.829 137.324 129.064 137.633 128.446 138.154C127.86 138.643 127.567 139.424 127.567 140.498C127.567 141.702 127.99 143.346 128.836 145.43L140.897 175.312L151.932 146.357C152.648 144.404 153.006 142.874 153.006 141.768C153.006 140.205 152.404 139.049 151.2 138.301C150.028 137.552 148.14 137.096 145.536 136.934V134.932ZM188.993 133.564C193.387 133.564 197.277 134.525 200.663 136.445C204.081 138.366 206.766 141.361 208.719 145.43C210.705 149.466 211.698 154.577 211.698 160.762C211.698 166.947 210.705 172.057 208.719 176.094C206.766 180.13 204.081 183.109 200.663 185.029C197.277 186.917 193.387 187.861 188.993 187.861C184.598 187.861 180.692 186.917 177.274 185.029C173.889 183.109 171.203 180.13 169.217 176.094C167.264 172.057 166.288 166.947 166.288 160.762C166.288 154.577 167.264 149.466 169.217 145.43C171.203 141.361 173.889 138.366 177.274 136.445C180.692 134.525 184.598 133.564 188.993 133.564ZM188.993 135.566C184.989 135.566 181.815 137.617 179.471 141.719C177.16 145.82 176.004 152.168 176.004 160.762C176.004 169.323 177.16 175.654 179.471 179.756C181.815 183.825 184.989 185.859 188.993 185.859C192.997 185.859 196.154 183.825 198.465 179.756C200.809 175.654 201.981 169.323 201.981 160.762C201.981 152.168 200.809 145.82 198.465 141.719C196.154 137.617 192.997 135.566 188.993 135.566ZM264.676 175.654C264.676 178.747 265.23 180.993 266.336 182.393C267.476 183.76 269.461 184.443 272.293 184.443V186.543C270.21 186.348 268.143 186.25 266.092 186.25C261.795 186.25 258.329 186.722 255.692 187.666V175.85C254.064 179.951 251.786 182.979 248.856 184.932C245.959 186.885 242.769 187.861 239.286 187.861C234.793 187.861 231.327 186.592 228.885 184.053C227.681 182.751 226.818 181.058 226.297 178.975C225.809 176.891 225.565 174.222 225.565 170.967V145.869C225.565 142.777 225.012 140.531 223.905 139.131C222.798 137.731 220.829 137.031 217.997 137.031V134.932C220.08 135.127 222.147 135.225 224.198 135.225C228.397 135.225 231.864 134.769 234.598 133.857V173.164C234.598 175.703 234.745 177.754 235.038 179.316C235.331 180.879 236.03 182.165 237.137 183.174C238.244 184.15 239.92 184.639 242.167 184.639C244.738 184.639 247.049 183.841 249.1 182.246C251.151 180.651 252.762 178.47 253.934 175.703C255.106 172.936 255.692 169.876 255.692 166.523V145.869C255.692 142.777 255.122 140.531 253.983 139.131C252.876 137.731 250.907 137.031 248.075 137.031V134.932C250.158 135.127 252.225 135.225 254.276 135.225C258.508 135.225 261.974 134.769 264.676 133.857V175.654ZM293.973 146.357C294.722 144.274 295.796 142.256 297.196 140.303C298.628 138.35 300.321 136.738 302.274 135.469C304.227 134.199 306.294 133.564 308.475 133.564C310.233 133.564 311.795 133.923 313.163 134.639C314.562 135.322 315.653 136.266 316.434 137.471C317.215 138.675 317.606 139.993 317.606 141.426C317.606 143.184 317.085 144.681 316.043 145.918C315.002 147.122 313.618 147.725 311.893 147.725C310.428 147.725 309.175 147.269 308.133 146.357C307.092 145.413 306.571 144.144 306.571 142.549C306.571 140.368 307.71 138.561 309.989 137.129C309.533 136.478 308.833 136.152 307.889 136.152C305.252 136.152 302.876 137.161 300.76 139.18C298.644 141.198 296.984 143.688 295.78 146.65C294.575 149.613 293.973 152.38 293.973 154.951V176.143C293.973 179.235 294.852 181.383 296.61 182.588C298.368 183.76 301.021 184.346 304.569 184.346V186.445C296.366 186.185 291.239 186.055 289.188 186.055C287.43 186.055 283.491 186.185 277.372 186.445V184.346C279.26 184.346 280.741 184.134 281.815 183.711C282.922 183.288 283.719 182.555 284.208 181.514C284.728 180.472 284.989 179.023 284.989 177.168V145.869C284.989 142.777 284.419 140.531 283.28 139.131C282.173 137.731 280.204 137.031 277.372 137.031V134.932C279.455 135.127 281.522 135.225 283.573 135.225C287.805 135.225 291.271 134.769 293.973 133.857V146.357ZM374.247 135.029V137.031H359.452V175.752C359.452 178.779 359.989 180.96 361.063 182.295C362.137 183.597 363.732 184.248 365.848 184.248C367.931 184.248 369.706 183.418 371.17 181.758C372.635 180.098 373.872 177.363 374.881 173.555L376.834 174.043C375.207 183.255 370.877 187.861 363.846 187.861C361.6 187.861 359.745 187.585 358.28 187.031C356.815 186.51 355.513 185.68 354.374 184.541C352.941 183.076 351.932 181.286 351.346 179.17C350.76 177.021 350.467 174.141 350.467 170.527V137.031H340.848V135.029H350.467V119.746C354.211 119.648 357.206 119.176 359.452 118.33V135.029H374.247ZM407.84 145.625C407.84 141.751 407.027 139.115 405.399 137.715C403.804 136.283 401.525 135.566 398.563 135.566C393.843 135.566 390.539 136.755 388.651 139.131C389.986 139.456 391.092 140.173 391.971 141.279C392.883 142.354 393.338 143.672 393.338 145.234C393.338 146.927 392.801 148.262 391.727 149.238C390.685 150.182 389.269 150.654 387.479 150.654C385.786 150.654 384.452 150.085 383.475 148.945C382.531 147.806 382.059 146.309 382.059 144.453C382.059 141.849 383.622 139.473 386.747 137.324C388.374 136.25 390.376 135.355 392.752 134.639C395.161 133.923 397.831 133.564 400.76 133.564C403.495 133.564 405.903 133.906 407.987 134.59C410.07 135.241 411.698 136.152 412.87 137.324C414.4 138.887 415.441 140.71 415.995 142.793C416.581 144.844 416.874 147.692 416.874 151.338V179.121C416.874 180.781 417.101 181.986 417.557 182.734C418.045 183.483 418.843 183.857 419.95 183.857C420.764 183.857 421.512 183.678 422.196 183.32C422.879 182.962 423.628 182.441 424.442 181.758L425.565 183.467C424.393 184.346 423.417 185.029 422.635 185.518C421.854 186.006 420.959 186.396 419.95 186.689C418.941 186.982 417.769 187.129 416.434 187.129C413.211 187.129 410.965 186.331 409.696 184.736C408.459 183.109 407.84 180.944 407.84 178.242C405.887 181.465 403.543 183.76 400.809 185.127C398.075 186.462 395.292 187.129 392.459 187.129C390.148 187.129 388.032 186.738 386.112 185.957C384.191 185.143 382.645 183.906 381.473 182.246C380.334 180.553 379.764 178.454 379.764 175.947C379.764 173.408 380.383 171.243 381.62 169.453C382.857 167.663 384.598 166.1 386.844 164.766C389.09 163.398 392.101 161.917 395.877 160.322C396.528 160.062 398.124 159.411 400.663 158.369C403.202 157.327 405.025 156.286 406.131 155.244C407.271 154.202 407.84 153.063 407.84 151.826V145.625ZM407.84 155.928C407.352 156.676 406.538 157.376 405.399 158.027C404.26 158.678 401.883 159.883 398.27 161.641C396.349 162.552 394.722 163.496 393.387 164.473C392.053 165.417 390.913 166.702 389.969 168.33C389.025 169.958 388.553 171.96 388.553 174.336C388.553 177.233 389.286 179.43 390.75 180.928C392.215 182.393 394.152 183.125 396.561 183.125C400.988 183.125 404.748 180.602 407.84 175.557V155.928ZM433.866 167.158C434.354 171.292 435.054 174.694 435.965 177.363C436.877 180.033 438.277 182.116 440.165 183.613C442.053 185.111 444.592 185.859 447.782 185.859C449.247 185.859 450.646 185.55 451.981 184.932C453.348 184.281 454.471 183.255 455.35 181.855C456.229 180.423 456.668 178.584 456.668 176.338C456.668 174.515 456.196 172.887 455.252 171.455C454.341 169.99 453.137 168.688 451.639 167.549C450.142 166.377 448.042 164.945 445.34 163.252C442.053 161.169 439.53 159.46 437.772 158.125C436.047 156.79 434.582 155.163 433.377 153.242C432.173 151.322 431.571 149.059 431.571 146.455C431.571 143.623 432.238 141.247 433.573 139.326C434.907 137.373 436.681 135.924 438.895 134.98C441.141 134.036 443.631 133.564 446.366 133.564C448.709 133.564 450.809 133.939 452.665 134.688C454.553 135.436 456.083 136.283 457.254 137.227C457.971 137.78 458.556 138.057 459.012 138.057C460.184 138.057 460.933 136.592 461.258 133.662H463.553C463.293 136.917 463.163 142.581 463.163 150.654H460.868C460.152 146.26 458.736 142.63 456.62 139.766C454.504 136.901 451.379 135.469 447.245 135.469C444.836 135.469 442.866 136.152 441.336 137.52C439.806 138.854 439.042 140.726 439.042 143.135C439.042 145.446 439.823 147.383 441.385 148.945C442.98 150.475 444.885 151.94 447.098 153.34C449.344 154.74 450.939 155.749 451.883 156.367C454.943 158.353 457.401 160.127 459.256 161.689C461.144 163.219 462.658 164.993 463.797 167.012C464.969 168.997 465.555 171.276 465.555 173.848C465.555 176.81 464.774 179.349 463.211 181.465C461.681 183.548 459.614 185.143 457.01 186.25C454.406 187.324 451.558 187.861 448.465 187.861C445.503 187.861 442.866 187.389 440.555 186.445C439.253 185.794 437.886 184.899 436.454 183.76C436.193 183.499 435.884 183.369 435.526 183.369C434.549 183.369 433.866 184.622 433.475 187.129H431.18C431.441 183.32 431.571 176.663 431.571 167.158H433.866ZM504.129 135.029V137.031H489.334V175.752C489.334 178.779 489.872 180.96 490.946 182.295C492.02 183.597 493.615 184.248 495.731 184.248C497.814 184.248 499.588 183.418 501.053 181.758C502.518 180.098 503.755 177.363 504.764 173.555L506.717 174.043C505.09 183.255 500.76 187.861 493.729 187.861C491.483 187.861 489.627 187.585 488.163 187.031C486.698 186.51 485.396 185.68 484.256 184.541C482.824 183.076 481.815 181.286 481.229 179.17C480.643 177.021 480.35 174.141 480.35 170.527V137.031H470.731V135.029H480.35V119.746C484.094 119.648 487.088 119.176 489.334 118.33V135.029H504.129ZM552.03 174.434C551.249 176.777 549.995 178.975 548.27 181.025C546.577 183.044 544.445 184.688 541.874 185.957C539.334 187.227 536.486 187.861 533.329 187.861C528.576 187.861 524.458 186.787 520.975 184.639C517.525 182.458 514.888 179.414 513.065 175.508C511.242 171.569 510.331 167.044 510.331 161.934C510.331 156.139 511.258 151.11 513.114 146.846C514.969 142.581 517.59 139.31 520.975 137.031C524.393 134.72 528.381 133.564 532.938 133.564C538.928 133.564 543.534 135.387 546.756 139.033C550.012 142.646 551.639 148.148 551.639 155.537H520.389C520.161 157.262 520.047 159.395 520.047 161.934C520.047 166.328 520.764 170.169 522.196 173.457C523.661 176.745 525.565 179.268 527.909 181.025C530.252 182.783 532.726 183.662 535.331 183.662C542.036 183.662 546.935 180.326 550.028 173.652L552.03 174.434ZM542.02 153.633C542.15 150.312 541.874 147.269 541.19 144.502C540.506 141.735 539.432 139.538 537.967 137.91C536.502 136.283 534.696 135.469 532.547 135.469C530.497 135.469 528.609 136.136 526.883 137.471C525.158 138.773 523.693 140.791 522.489 143.525C521.317 146.227 520.568 149.596 520.243 153.633H542.02Z" fill="#2C2F24"/>
<path d="M77.25 247.445V233.445H81.55C84.0167 233.445 85.83 234.072 86.99 235.325C88.1634 236.579 88.75 238.299 88.75 240.485C88.75 242.632 88.1634 244.332 86.99 245.585C85.83 246.825 84.0167 247.445 81.55 247.445H77.25ZM78.93 246.045H81.51C82.87 246.045 83.95 245.825 84.75 245.385C85.5634 244.932 86.1434 244.292 86.49 243.465C86.8367 242.625 87.01 241.632 87.01 240.485C87.01 239.312 86.8367 238.305 86.49 237.465C86.1434 236.625 85.5634 235.979 84.75 235.525C83.95 235.072 82.87 234.845 81.51 234.845H78.93V246.045ZM92.0958 235.325C91.7625 235.325 91.4825 235.219 91.2558 235.005C91.0425 234.779 90.9358 234.499 90.9358 234.165C90.9358 233.845 91.0425 233.579 91.2558 233.365C91.4825 233.152 91.7625 233.045 92.0958 233.045C92.4158 233.045 92.6891 233.152 92.9158 233.365C93.1425 233.579 93.2558 233.845 93.2558 234.165C93.2558 234.499 93.1425 234.779 92.9158 235.005C92.6891 235.219 92.4158 235.325 92.0958 235.325ZM91.2558 247.445V237.525H92.9358V247.445H91.2558ZM99.661 247.685C98.4743 247.685 97.4876 247.385 96.701 246.785C95.9143 246.185 95.4543 245.372 95.321 244.345H97.041C97.1476 244.865 97.421 245.319 97.861 245.705C98.3143 246.079 98.921 246.265 99.681 246.265C100.388 246.265 100.908 246.119 101.241 245.825C101.574 245.519 101.741 245.159 101.741 244.745C101.741 244.145 101.521 243.745 101.081 243.545C100.654 243.345 100.048 243.165 99.261 243.005C98.7276 242.899 98.1943 242.745 97.661 242.545C97.1276 242.345 96.681 242.065 96.321 241.705C95.961 241.332 95.781 240.845 95.781 240.245C95.781 239.379 96.101 238.672 96.741 238.125C97.3943 237.565 98.2743 237.285 99.381 237.285C100.434 237.285 101.294 237.552 101.961 238.085C102.641 238.605 103.034 239.352 103.141 240.325H101.481C101.414 239.819 101.194 239.425 100.821 239.145C100.461 238.852 99.9743 238.705 99.361 238.705C98.761 238.705 98.2943 238.832 97.961 239.085C97.641 239.339 97.481 239.672 97.481 240.085C97.481 240.485 97.6876 240.799 98.101 241.025C98.5276 241.252 99.101 241.445 99.821 241.605C100.434 241.739 101.014 241.905 101.561 242.105C102.121 242.292 102.574 242.579 102.921 242.965C103.281 243.339 103.461 243.885 103.461 244.605C103.474 245.499 103.134 246.239 102.441 246.825C101.761 247.399 100.834 247.685 99.661 247.685ZM110.421 247.685C109.474 247.685 108.621 247.472 107.861 247.045C107.114 246.605 106.521 245.999 106.081 245.225C105.654 244.439 105.441 243.525 105.441 242.485C105.441 241.445 105.654 240.539 106.081 239.765C106.521 238.979 107.114 238.372 107.861 237.945C108.621 237.505 109.474 237.285 110.421 237.285C111.594 237.285 112.581 237.592 113.381 238.205C114.194 238.819 114.708 239.639 114.921 240.665H113.201C113.068 240.052 112.741 239.579 112.221 239.245C111.701 238.899 111.094 238.725 110.401 238.725C109.841 238.725 109.314 238.865 108.821 239.145C108.328 239.425 107.928 239.845 107.621 240.405C107.314 240.965 107.161 241.659 107.161 242.485C107.161 243.312 107.314 244.005 107.621 244.565C107.928 245.125 108.328 245.552 108.821 245.845C109.314 246.125 109.841 246.265 110.401 246.265C111.094 246.265 111.701 246.099 112.221 245.765C112.741 245.419 113.068 244.932 113.201 244.305H114.921C114.721 245.305 114.214 246.119 113.401 246.745C112.588 247.372 111.594 247.685 110.421 247.685ZM121.787 247.685C120.854 247.685 120.014 247.472 119.267 247.045C118.521 246.619 117.927 246.019 117.487 245.245C117.061 244.459 116.847 243.539 116.847 242.485C116.847 241.432 117.067 240.519 117.507 239.745C117.947 238.959 118.541 238.352 119.287 237.925C120.047 237.499 120.894 237.285 121.827 237.285C122.761 237.285 123.601 237.499 124.347 237.925C125.094 238.352 125.681 238.959 126.107 239.745C126.547 240.519 126.767 241.432 126.767 242.485C126.767 243.539 126.547 244.459 126.107 245.245C125.667 246.019 125.067 246.619 124.307 247.045C123.561 247.472 122.721 247.685 121.787 247.685ZM121.787 246.245C122.361 246.245 122.894 246.105 123.387 245.825C123.881 245.545 124.281 245.125 124.587 244.565C124.894 244.005 125.047 243.312 125.047 242.485C125.047 241.659 124.894 240.965 124.587 240.405C124.294 239.845 123.901 239.425 123.407 239.145C122.914 238.865 122.387 238.725 121.827 238.725C121.254 238.725 120.721 238.865 120.227 239.145C119.734 239.425 119.334 239.845 119.027 240.405C118.721 240.965 118.567 241.659 118.567 242.485C118.567 243.312 118.721 244.005 119.027 244.565C119.334 245.125 119.727 245.545 120.207 245.825C120.701 246.105 121.227 246.245 121.787 246.245ZM131.455 247.445L127.695 237.525H129.455L132.435 245.825L135.435 237.525H137.155L133.395 247.445H131.455ZM142.977 247.685C142.031 247.685 141.191 247.472 140.457 247.045C139.724 246.605 139.144 245.999 138.717 245.225C138.304 244.452 138.097 243.539 138.097 242.485C138.097 241.445 138.304 240.539 138.717 239.765C139.131 238.979 139.704 238.372 140.437 237.945C141.184 237.505 142.044 237.285 143.017 237.285C143.977 237.285 144.804 237.505 145.497 237.945C146.204 238.372 146.744 238.939 147.117 239.645C147.491 240.352 147.677 241.112 147.677 241.925C147.677 242.072 147.671 242.219 147.657 242.365C147.657 242.512 147.657 242.679 147.657 242.865H139.757C139.797 243.625 139.971 244.259 140.277 244.765C140.597 245.259 140.991 245.632 141.457 245.885C141.937 246.139 142.444 246.265 142.977 246.265C143.671 246.265 144.251 246.105 144.717 245.785C145.184 245.465 145.524 245.032 145.737 244.485H147.397C147.131 245.405 146.617 246.172 145.857 246.785C145.111 247.385 144.151 247.685 142.977 247.685ZM142.977 238.705C142.177 238.705 141.464 238.952 140.837 239.445C140.224 239.925 139.871 240.632 139.777 241.565H146.017C145.977 240.672 145.671 239.972 145.097 239.465C144.524 238.959 143.817 238.705 142.977 238.705ZM149.904 247.445V237.525H151.424L151.564 239.425C151.871 238.772 152.337 238.252 152.964 237.865C153.591 237.479 154.364 237.285 155.284 237.285V239.045H154.824C154.237 239.045 153.697 239.152 153.204 239.365C152.711 239.565 152.317 239.912 152.024 240.405C151.731 240.899 151.584 241.579 151.584 242.445V247.445H149.904ZM166.963 247.685C165.976 247.685 165.109 247.459 164.363 247.005C163.629 246.552 163.056 245.932 162.643 245.145C162.243 244.359 162.043 243.465 162.043 242.465C162.043 241.465 162.249 240.579 162.663 239.805C163.076 239.019 163.649 238.405 164.383 237.965C165.116 237.512 165.983 237.285 166.983 237.285C167.796 237.285 168.516 237.452 169.143 237.785C169.769 238.119 170.256 238.585 170.603 239.185V233.045H172.283V247.445H170.763L170.603 245.805C170.283 246.285 169.823 246.719 169.223 247.105C168.623 247.492 167.869 247.685 166.963 247.685ZM167.143 246.225C167.809 246.225 168.396 246.072 168.903 245.765C169.423 245.445 169.823 245.005 170.103 244.445C170.396 243.885 170.543 243.232 170.543 242.485C170.543 241.739 170.396 241.085 170.103 240.525C169.823 239.965 169.423 239.532 168.903 239.225C168.396 238.905 167.809 238.745 167.143 238.745C166.489 238.745 165.903 238.905 165.383 239.225C164.876 239.532 164.476 239.965 164.183 240.525C163.903 241.085 163.763 241.739 163.763 242.485C163.763 243.232 163.903 243.885 164.183 244.445C164.476 245.005 164.876 245.445 165.383 245.765C165.903 246.072 166.489 246.225 167.143 246.225ZM179.481 247.685C178.534 247.685 177.694 247.472 176.961 247.045C176.228 246.605 175.648 245.999 175.221 245.225C174.808 244.452 174.601 243.539 174.601 242.485C174.601 241.445 174.808 240.539 175.221 239.765C175.634 238.979 176.208 238.372 176.941 237.945C177.688 237.505 178.548 237.285 179.521 237.285C180.481 237.285 181.308 237.505 182.001 237.945C182.708 238.372 183.248 238.939 183.621 239.645C183.994 240.352 184.181 241.112 184.181 241.925C184.181 242.072 184.174 242.219 184.161 242.365C184.161 242.512 184.161 242.679 184.161 242.865H176.261C176.301 243.625 176.474 244.259 176.781 244.765C177.101 245.259 177.494 245.632 177.961 245.885C178.441 246.139 178.948 246.265 179.481 246.265C180.174 246.265 180.754 246.105 181.221 245.785C181.688 245.465 182.028 245.032 182.241 244.485H183.901C183.634 245.405 183.121 246.172 182.361 246.785C181.614 247.385 180.654 247.685 179.481 247.685ZM179.481 238.705C178.681 238.705 177.968 238.952 177.341 239.445C176.728 239.925 176.374 240.632 176.281 241.565H182.521C182.481 240.672 182.174 239.972 181.601 239.465C181.028 238.959 180.321 238.705 179.481 238.705ZM186.408 247.445V233.045H188.088V247.445H186.408ZM195.301 247.685C194.355 247.685 193.515 247.472 192.781 247.045C192.048 246.605 191.468 245.999 191.041 245.225C190.628 244.452 190.421 243.539 190.421 242.485C190.421 241.445 190.628 240.539 191.041 239.765C191.455 238.979 192.028 238.372 192.761 237.945C193.508 237.505 194.368 237.285 195.341 237.285C196.301 237.285 197.128 237.505 197.821 237.945C198.528 238.372 199.068 238.939 199.441 239.645C199.815 240.352 200.001 241.112 200.001 241.925C200.001 242.072 199.995 242.219 199.981 242.365C199.981 242.512 199.981 242.679 199.981 242.865H192.081C192.121 243.625 192.295 244.259 192.601 244.765C192.921 245.259 193.315 245.632 193.781 245.885C194.261 246.139 194.768 246.265 195.301 246.265C195.995 246.265 196.575 246.105 197.041 245.785C197.508 245.465 197.848 245.032 198.061 244.485H199.721C199.455 245.405 198.941 246.172 198.181 246.785C197.435 247.385 196.475 247.685 195.301 247.685ZM195.301 238.705C194.501 238.705 193.788 238.952 193.161 239.445C192.548 239.925 192.195 240.632 192.101 241.565H198.341C198.301 240.672 197.995 239.972 197.421 239.465C196.848 238.959 196.141 238.705 195.301 238.705ZM206.788 247.685C205.841 247.685 204.988 247.472 204.228 247.045C203.481 246.605 202.888 245.999 202.448 245.225C202.021 244.439 201.808 243.525 201.808 242.485C201.808 241.445 202.021 240.539 202.448 239.765C202.888 238.979 203.481 238.372 204.228 237.945C204.988 237.505 205.841 237.285 206.788 237.285C207.961 237.285 208.948 237.592 209.748 238.205C210.561 238.819 211.075 239.639 211.288 240.665H209.568C209.435 240.052 209.108 239.579 208.588 239.245C208.068 238.899 207.461 238.725 206.768 238.725C206.208 238.725 205.681 238.865 205.188 239.145C204.695 239.425 204.295 239.845 203.988 240.405C203.681 240.965 203.528 241.659 203.528 242.485C203.528 243.312 203.681 244.005 203.988 244.565C204.295 245.125 204.695 245.552 205.188 245.845C205.681 246.125 206.208 246.265 206.768 246.265C207.461 246.265 208.068 246.099 208.588 245.765C209.108 245.419 209.435 244.932 209.568 244.305H211.288C211.088 245.305 210.581 246.119 209.768 246.745C208.955 247.372 207.961 247.685 206.788 247.685ZM217.281 247.445C216.374 247.445 215.661 247.225 215.141 246.785C214.621 246.345 214.361 245.552 214.361 244.405V238.945H212.641V237.525H214.361L214.581 235.145H216.041V237.525H218.961V238.945H216.041V244.405C216.041 245.032 216.168 245.459 216.421 245.685C216.674 245.899 217.121 246.005 217.761 246.005H218.801V247.445H217.281ZM224.395 247.685C223.569 247.685 222.882 247.545 222.335 247.265C221.789 246.985 221.382 246.612 221.115 246.145C220.849 245.679 220.715 245.172 220.715 244.625C220.715 243.612 221.102 242.832 221.875 242.285C222.649 241.739 223.702 241.465 225.035 241.465H227.715V241.345C227.715 240.479 227.489 239.825 227.035 239.385C226.582 238.932 225.975 238.705 225.215 238.705C224.562 238.705 223.995 238.872 223.515 239.205C223.049 239.525 222.755 239.999 222.635 240.625H220.915C220.982 239.905 221.222 239.299 221.635 238.805C222.062 238.312 222.589 237.939 223.215 237.685C223.842 237.419 224.509 237.285 225.215 237.285C226.602 237.285 227.642 237.659 228.335 238.405C229.042 239.139 229.395 240.119 229.395 241.345V247.445H227.895L227.795 245.665C227.515 246.225 227.102 246.705 226.555 247.105C226.022 247.492 225.302 247.685 224.395 247.685ZM224.655 246.265C225.295 246.265 225.842 246.099 226.295 245.765C226.762 245.432 227.115 244.999 227.355 244.465C227.595 243.932 227.715 243.372 227.715 242.785V242.765H225.175C224.189 242.765 223.489 242.939 223.075 243.285C222.675 243.619 222.475 244.039 222.475 244.545C222.475 245.065 222.662 245.485 223.035 245.805C223.422 246.112 223.962 246.265 224.655 246.265ZM237.216 247.685C236.402 247.685 235.676 247.519 235.036 247.185C234.409 246.852 233.929 246.385 233.596 245.785L233.436 247.445H231.916V233.045H233.596V239.165C233.916 238.685 234.369 238.252 234.956 237.865C235.556 237.479 236.316 237.285 237.236 237.285C238.222 237.285 239.082 237.512 239.816 237.965C240.549 238.419 241.116 239.039 241.516 239.825C241.929 240.612 242.136 241.505 242.136 242.505C242.136 243.505 241.929 244.399 241.516 245.185C241.116 245.959 240.542 246.572 239.796 247.025C239.062 247.465 238.202 247.685 237.216 247.685ZM237.036 246.225C237.702 246.225 238.289 246.072 238.796 245.765C239.302 245.445 239.702 245.005 239.996 244.445C240.289 243.885 240.436 243.232 240.436 242.485C240.436 241.739 240.289 241.085 239.996 240.525C239.702 239.965 239.302 239.532 238.796 239.225C238.289 238.905 237.702 238.745 237.036 238.745C236.369 238.745 235.782 238.905 235.276 239.225C234.769 239.532 234.369 239.965 234.076 240.525C233.782 241.085 233.636 241.739 233.636 242.485C233.636 243.232 233.782 243.885 234.076 244.445C234.369 245.005 234.769 245.445 235.276 245.765C235.782 246.072 236.369 246.225 237.036 246.225ZM244.474 247.445V233.045H246.154V247.445H244.474ZM253.368 247.685C252.421 247.685 251.581 247.472 250.848 247.045C250.114 246.605 249.534 245.999 249.108 245.225C248.694 244.452 248.488 243.539 248.488 242.485C248.488 241.445 248.694 240.539 249.108 239.765C249.521 238.979 250.094 238.372 250.828 237.945C251.574 237.505 252.434 237.285 253.408 237.285C254.368 237.285 255.194 237.505 255.888 237.945C256.594 238.372 257.134 238.939 257.508 239.645C257.881 240.352 258.068 241.112 258.068 241.925C258.068 242.072 258.061 242.219 258.048 242.365C258.048 242.512 258.048 242.679 258.048 242.865H250.148C250.188 243.625 250.361 244.259 250.668 244.765C250.988 245.259 251.381 245.632 251.848 245.885C252.328 246.139 252.834 246.265 253.368 246.265C254.061 246.265 254.641 246.105 255.108 245.785C255.574 245.465 255.914 245.032 256.128 244.485H257.788C257.521 245.405 257.008 246.172 256.248 246.785C255.501 247.385 254.541 247.685 253.368 247.685ZM253.368 238.705C252.568 238.705 251.854 238.952 251.228 239.445C250.614 239.925 250.261 240.632 250.168 241.565H256.408C256.368 240.672 256.061 239.972 255.488 239.465C254.914 238.959 254.208 238.705 253.368 238.705ZM270.148 247.685C269.201 247.685 268.348 247.472 267.588 247.045C266.841 246.605 266.248 245.999 265.808 245.225C265.381 244.439 265.168 243.525 265.168 242.485C265.168 241.445 265.381 240.539 265.808 239.765C266.248 238.979 266.841 238.372 267.588 237.945C268.348 237.505 269.201 237.285 270.148 237.285C271.321 237.285 272.308 237.592 273.108 238.205C273.921 238.819 274.434 239.639 274.648 240.665H272.928C272.794 240.052 272.468 239.579 271.948 239.245C271.428 238.899 270.821 238.725 270.128 238.725C269.568 238.725 269.041 238.865 268.548 239.145C268.054 239.425 267.654 239.845 267.348 240.405C267.041 240.965 266.888 241.659 266.888 242.485C266.888 243.312 267.041 244.005 267.348 244.565C267.654 245.125 268.054 245.552 268.548 245.845C269.041 246.125 269.568 246.265 270.128 246.265C270.821 246.265 271.428 246.099 271.948 245.765C272.468 245.419 272.794 244.932 272.928 244.305H274.648C274.448 245.305 273.941 246.119 273.128 246.745C272.314 247.372 271.321 247.685 270.148 247.685ZM280.614 247.685C279.44 247.685 278.507 247.332 277.814 246.625C277.12 245.905 276.774 244.805 276.774 243.325V237.525H278.454V243.145C278.454 245.212 279.3 246.245 280.994 246.245C281.86 246.245 282.574 245.939 283.134 245.325C283.707 244.699 283.994 243.812 283.994 242.665V237.525H285.674V247.445H284.154L284.034 245.665C283.727 246.292 283.267 246.785 282.654 247.145C282.054 247.505 281.374 247.685 280.614 247.685ZM289.459 235.325C289.126 235.325 288.846 235.219 288.619 235.005C288.406 234.779 288.299 234.499 288.299 234.165C288.299 233.845 288.406 233.579 288.619 233.365C288.846 233.152 289.126 233.045 289.459 233.045C289.779 233.045 290.052 233.152 290.279 233.365C290.506 233.579 290.619 233.845 290.619 234.165C290.619 234.499 290.506 234.779 290.279 235.005C290.052 235.219 289.779 235.325 289.459 235.325ZM288.619 247.445V237.525H290.299V247.445H288.619ZM297.024 247.685C295.838 247.685 294.851 247.385 294.064 246.785C293.278 246.185 292.818 245.372 292.684 244.345H294.404C294.511 244.865 294.784 245.319 295.224 245.705C295.678 246.079 296.284 246.265 297.044 246.265C297.751 246.265 298.271 246.119 298.604 245.825C298.938 245.519 299.104 245.159 299.104 244.745C299.104 244.145 298.884 243.745 298.444 243.545C298.018 243.345 297.411 243.165 296.624 243.005C296.091 242.899 295.558 242.745 295.024 242.545C294.491 242.345 294.044 242.065 293.684 241.705C293.324 241.332 293.144 240.845 293.144 240.245C293.144 239.379 293.464 238.672 294.104 238.125C294.758 237.565 295.638 237.285 296.744 237.285C297.798 237.285 298.658 237.552 299.324 238.085C300.004 238.605 300.398 239.352 300.504 240.325H298.844C298.778 239.819 298.558 239.425 298.184 239.145C297.824 238.852 297.338 238.705 296.724 238.705C296.124 238.705 295.658 238.832 295.324 239.085C295.004 239.339 294.844 239.672 294.844 240.085C294.844 240.485 295.051 240.799 295.464 241.025C295.891 241.252 296.464 241.445 297.184 241.605C297.798 241.739 298.378 241.905 298.924 242.105C299.484 242.292 299.938 242.579 300.284 242.965C300.644 243.339 300.824 243.885 300.824 244.605C300.838 245.499 300.498 246.239 299.804 246.825C299.124 247.399 298.198 247.685 297.024 247.685ZM304.244 235.325C303.911 235.325 303.631 235.219 303.404 235.005C303.191 234.779 303.084 234.499 303.084 234.165C303.084 233.845 303.191 233.579 303.404 233.365C303.631 233.152 303.911 233.045 304.244 233.045C304.564 233.045 304.838 233.152 305.064 233.365C305.291 233.579 305.404 233.845 305.404 234.165C305.404 234.499 305.291 234.779 305.064 235.005C304.838 235.219 304.564 235.325 304.244 235.325ZM303.404 247.445V237.525H305.084V247.445H303.404ZM308.009 247.445V237.525H309.529L309.629 239.305C309.949 238.679 310.409 238.185 311.009 237.825C311.609 237.465 312.289 237.285 313.049 237.285C314.223 237.285 315.156 237.645 315.849 238.365C316.556 239.072 316.909 240.165 316.909 241.645V247.445H315.229V241.825C315.229 239.759 314.376 238.725 312.669 238.725C311.816 238.725 311.103 239.039 310.529 239.665C309.969 240.279 309.689 241.159 309.689 242.305V247.445H308.009ZM323.915 247.685C322.968 247.685 322.128 247.472 321.395 247.045C320.661 246.605 320.081 245.999 319.655 245.225C319.241 244.452 319.035 243.539 319.035 242.485C319.035 241.445 319.241 240.539 319.655 239.765C320.068 238.979 320.641 238.372 321.375 237.945C322.121 237.505 322.981 237.285 323.955 237.285C324.915 237.285 325.741 237.505 326.435 237.945C327.141 238.372 327.681 238.939 328.055 239.645C328.428 240.352 328.615 241.112 328.615 241.925C328.615 242.072 328.608 242.219 328.595 242.365C328.595 242.512 328.595 242.679 328.595 242.865H320.695C320.735 243.625 320.908 244.259 321.215 244.765C321.535 245.259 321.928 245.632 322.395 245.885C322.875 246.139 323.381 246.265 323.915 246.265C324.608 246.265 325.188 246.105 325.655 245.785C326.121 245.465 326.461 245.032 326.675 244.485H328.335C328.068 245.405 327.555 246.172 326.795 246.785C326.048 247.385 325.088 247.685 323.915 247.685ZM323.915 238.705C323.115 238.705 322.401 238.952 321.775 239.445C321.161 239.925 320.808 240.632 320.715 241.565H326.955C326.915 240.672 326.608 239.972 326.035 239.465C325.461 238.959 324.755 238.705 323.915 238.705ZM339.434 247.685C338.608 247.685 337.921 247.545 337.374 247.265C336.828 246.985 336.421 246.612 336.154 246.145C335.888 245.679 335.754 245.172 335.754 244.625C335.754 243.612 336.141 242.832 336.914 242.285C337.688 241.739 338.741 241.465 340.074 241.465H342.754V241.345C342.754 240.479 342.528 239.825 342.074 239.385C341.621 238.932 341.014 238.705 340.254 238.705C339.601 238.705 339.034 238.872 338.554 239.205C338.088 239.525 337.794 239.999 337.674 240.625H335.954C336.021 239.905 336.261 239.299 336.674 238.805C337.101 238.312 337.628 237.939 338.254 237.685C338.881 237.419 339.548 237.285 340.254 237.285C341.641 237.285 342.681 237.659 343.374 238.405C344.081 239.139 344.434 240.119 344.434 241.345V247.445H342.934L342.834 245.665C342.554 246.225 342.141 246.705 341.594 247.105C341.061 247.492 340.341 247.685 339.434 247.685ZM339.694 246.265C340.334 246.265 340.881 246.099 341.334 245.765C341.801 245.432 342.154 244.999 342.394 244.465C342.634 243.932 342.754 243.372 342.754 242.785V242.765H340.214C339.228 242.765 338.528 242.939 338.114 243.285C337.714 243.619 337.514 244.039 337.514 244.545C337.514 245.065 337.701 245.485 338.074 245.805C338.461 246.112 339.001 246.265 339.694 246.265ZM346.955 247.445V237.525H348.475L348.575 239.305C348.895 238.679 349.355 238.185 349.955 237.825C350.555 237.465 351.235 237.285 351.995 237.285C353.168 237.285 354.101 237.645 354.795 238.365C355.501 239.072 355.855 240.165 355.855 241.645V247.445H354.175V241.825C354.175 239.759 353.321 238.725 351.615 238.725C350.761 238.725 350.048 239.039 349.475 239.665C348.915 240.279 348.635 241.159 348.635 242.305V247.445H346.955ZM362.9 247.685C361.913 247.685 361.047 247.459 360.3 247.005C359.567 246.552 358.993 245.932 358.58 245.145C358.18 244.359 357.98 243.465 357.98 242.465C357.98 241.465 358.187 240.579 358.6 239.805C359.013 239.019 359.587 238.405 360.32 237.965C361.053 237.512 361.92 237.285 362.92 237.285C363.733 237.285 364.453 237.452 365.08 237.785C365.707 238.119 366.193 238.585 366.54 239.185V233.045H368.22V247.445H366.7L366.54 245.805C366.22 246.285 365.76 246.719 365.16 247.105C364.56 247.492 363.807 247.685 362.9 247.685ZM363.08 246.225C363.747 246.225 364.333 246.072 364.84 245.765C365.36 245.445 365.76 245.005 366.04 244.445C366.333 243.885 366.48 243.232 366.48 242.485C366.48 241.739 366.333 241.085 366.04 240.525C365.76 239.965 365.36 239.532 364.84 239.225C364.333 238.905 363.747 238.745 363.08 238.745C362.427 238.745 361.84 238.905 361.32 239.225C360.813 239.532 360.413 239.965 360.12 240.525C359.84 241.085 359.7 241.739 359.7 242.485C359.7 243.232 359.84 243.885 360.12 244.445C360.413 245.005 360.813 245.445 361.32 245.765C361.84 246.072 362.427 246.225 363.08 246.225ZM379.872 247.685C378.698 247.685 377.765 247.332 377.072 246.625C376.378 245.905 376.032 244.805 376.032 243.325V237.525H377.712V243.145C377.712 245.212 378.558 246.245 380.252 246.245C381.118 246.245 381.832 245.939 382.392 245.325C382.965 244.699 383.252 243.812 383.252 242.665V237.525H384.932V247.445H383.412L383.292 245.665C382.985 246.292 382.525 246.785 381.912 247.145C381.312 247.505 380.632 247.685 379.872 247.685ZM387.697 247.445V237.525H389.217L389.317 239.305C389.637 238.679 390.097 238.185 390.697 237.825C391.297 237.465 391.977 237.285 392.737 237.285C393.91 237.285 394.844 237.645 395.537 238.365C396.244 239.072 396.597 240.165 396.597 241.645V247.445H394.917V241.825C394.917 239.759 394.064 238.725 392.357 238.725C391.504 238.725 390.79 239.039 390.217 239.665C389.657 240.279 389.377 241.159 389.377 242.305V247.445H387.697ZM399.682 247.445V238.945H398.182V237.525H399.682V235.805C399.682 234.845 399.922 234.145 400.402 233.705C400.882 233.265 401.582 233.045 402.502 233.045H403.502V234.485H402.762C402.256 234.485 401.896 234.592 401.682 234.805C401.469 235.005 401.362 235.352 401.362 235.845V237.525H403.802V238.945H401.362V247.445H399.682ZM409.932 247.685C408.998 247.685 408.158 247.472 407.412 247.045C406.665 246.619 406.072 246.019 405.632 245.245C405.205 244.459 404.992 243.539 404.992 242.485C404.992 241.432 405.212 240.519 405.652 239.745C406.092 238.959 406.685 238.352 407.432 237.925C408.192 237.499 409.038 237.285 409.972 237.285C410.905 237.285 411.745 237.499 412.492 237.925C413.238 238.352 413.825 238.959 414.252 239.745C414.692 240.519 414.912 241.432 414.912 242.485C414.912 243.539 414.692 244.459 414.252 245.245C413.812 246.019 413.212 246.619 412.452 247.045C411.705 247.472 410.865 247.685 409.932 247.685ZM409.932 246.245C410.505 246.245 411.038 246.105 411.532 245.825C412.025 245.545 412.425 245.125 412.732 244.565C413.038 244.005 413.192 243.312 413.192 242.485C413.192 241.659 413.038 240.965 412.732 240.405C412.438 239.845 412.045 239.425 411.552 239.145C411.058 238.865 410.532 238.725 409.972 238.725C409.398 238.725 408.865 238.865 408.372 239.145C407.878 239.425 407.478 239.845 407.172 240.405C406.865 240.965 406.712 241.659 406.712 242.485C406.712 243.312 406.865 244.005 407.172 244.565C407.478 245.125 407.872 245.545 408.352 245.825C408.845 246.105 409.372 246.245 409.932 246.245ZM417.248 247.445V237.525H418.768L418.908 239.425C419.214 238.772 419.681 238.252 420.308 237.865C420.934 237.479 421.708 237.285 422.628 237.285V239.045H422.168C421.581 239.045 421.041 239.152 420.548 239.365C420.054 239.565 419.661 239.912 419.368 240.405C419.074 240.899 418.928 241.579 418.928 242.445V247.445H417.248ZM428.199 244.325C427.639 244.325 427.126 244.252 426.659 244.105L425.659 245.045C425.806 245.152 425.986 245.245 426.199 245.325C426.426 245.392 426.746 245.459 427.159 245.525C427.572 245.579 428.152 245.639 428.899 245.705C430.232 245.799 431.186 246.105 431.759 246.625C432.332 247.145 432.619 247.825 432.619 248.665C432.619 249.239 432.459 249.785 432.139 250.305C431.832 250.825 431.352 251.252 430.699 251.585C430.059 251.919 429.232 252.085 428.219 252.085C427.326 252.085 426.532 251.965 425.839 251.725C425.146 251.499 424.606 251.145 424.219 250.665C423.832 250.199 423.639 249.605 423.639 248.885C423.639 248.512 423.739 248.105 423.939 247.665C424.139 247.239 424.512 246.832 425.059 246.445C424.766 246.325 424.512 246.199 424.299 246.065C424.099 245.919 423.912 245.759 423.739 245.585V245.125L425.439 243.445C424.652 242.779 424.259 241.899 424.259 240.805C424.259 240.152 424.412 239.559 424.719 239.025C425.026 238.492 425.472 238.072 426.059 237.765C426.646 237.445 427.359 237.285 428.199 237.285C428.772 237.285 429.292 237.365 429.759 237.525H433.419V238.785L431.559 238.865C431.946 239.425 432.139 240.072 432.139 240.805C432.139 241.459 431.979 242.052 431.659 242.585C431.352 243.119 430.906 243.545 430.319 243.865C429.746 244.172 429.039 244.325 428.199 244.325ZM428.199 242.945C428.906 242.945 429.466 242.765 429.879 242.405C430.306 242.032 430.519 241.499 430.519 240.805C430.519 240.125 430.306 239.605 429.879 239.245C429.466 238.872 428.906 238.685 428.199 238.685C427.479 238.685 426.906 238.872 426.479 239.245C426.066 239.605 425.859 240.125 425.859 240.805C425.859 241.499 426.066 242.032 426.479 242.405C426.906 242.765 427.479 242.945 428.199 242.945ZM425.279 248.725C425.279 249.392 425.559 249.885 426.119 250.205C426.679 250.539 427.379 250.705 428.219 250.705C429.046 250.705 429.706 250.525 430.199 250.165C430.706 249.805 430.959 249.325 430.959 248.725C430.959 248.299 430.786 247.925 430.439 247.605C430.092 247.299 429.452 247.119 428.519 247.065C427.786 247.012 427.152 246.945 426.619 246.865C426.072 247.159 425.712 247.472 425.539 247.805C425.366 248.152 425.279 248.459 425.279 248.725ZM439.383 247.685C438.437 247.685 437.597 247.472 436.863 247.045C436.13 246.605 435.55 245.999 435.123 245.225C434.71 244.452 434.503 243.539 434.503 242.485C434.503 241.445 434.71 240.539 435.123 239.765C435.537 238.979 436.11 238.372 436.843 237.945C437.59 237.505 438.45 237.285 439.423 237.285C440.383 237.285 441.21 237.505 441.903 237.945C442.61 238.372 443.15 238.939 443.523 239.645C443.897 240.352 444.083 241.112 444.083 241.925C444.083 242.072 444.077 242.219 444.063 242.365C444.063 242.512 444.063 242.679 444.063 242.865H436.163C436.203 243.625 436.377 244.259 436.683 244.765C437.003 245.259 437.397 245.632 437.863 245.885C438.343 246.139 438.85 246.265 439.383 246.265C440.077 246.265 440.657 246.105 441.123 245.785C441.59 245.465 441.93 245.032 442.143 244.485H443.803C443.537 245.405 443.023 246.172 442.263 246.785C441.517 247.385 440.557 247.685 439.383 247.685ZM439.383 238.705C438.583 238.705 437.87 238.952 437.243 239.445C436.63 239.925 436.277 240.632 436.183 241.565H442.423C442.383 240.672 442.077 239.972 441.503 239.465C440.93 238.959 440.223 238.705 439.383 238.705ZM449.898 247.445C448.991 247.445 448.278 247.225 447.758 246.785C447.238 246.345 446.978 245.552 446.978 244.405V238.945H445.258V237.525H446.978L447.198 235.145H448.658V237.525H451.578V238.945H448.658V244.405C448.658 245.032 448.785 245.459 449.038 245.685C449.291 245.899 449.738 246.005 450.378 246.005H451.418V247.445H449.898ZM457.633 247.445C456.726 247.445 456.013 247.225 455.493 246.785C454.973 246.345 454.713 245.552 454.713 244.405V238.945H452.993V237.525H454.713L454.933 235.145H456.393V237.525H459.313V238.945H456.393V244.405C456.393 245.032 456.519 245.459 456.773 245.685C457.026 245.899 457.473 246.005 458.113 246.005H459.153V247.445H457.633ZM464.747 247.685C463.92 247.685 463.234 247.545 462.687 247.265C462.14 246.985 461.734 246.612 461.467 246.145C461.2 245.679 461.067 245.172 461.067 244.625C461.067 243.612 461.454 242.832 462.227 242.285C463 241.739 464.054 241.465 465.387 241.465H468.067V241.345C468.067 240.479 467.84 239.825 467.387 239.385C466.934 238.932 466.327 238.705 465.567 238.705C464.914 238.705 464.347 238.872 463.867 239.205C463.4 239.525 463.107 239.999 462.987 240.625H461.267C461.334 239.905 461.574 239.299 461.987 238.805C462.414 238.312 462.94 237.939 463.567 237.685C464.194 237.419 464.86 237.285 465.567 237.285C466.954 237.285 467.994 237.659 468.687 238.405C469.394 239.139 469.747 240.119 469.747 241.345V247.445H468.247L468.147 245.665C467.867 246.225 467.454 246.705 466.907 247.105C466.374 247.492 465.654 247.685 464.747 247.685ZM465.007 246.265C465.647 246.265 466.194 246.099 466.647 245.765C467.114 245.432 467.467 244.999 467.707 244.465C467.947 243.932 468.067 243.372 468.067 242.785V242.765H465.527C464.54 242.765 463.84 242.939 463.427 243.285C463.027 243.619 462.827 244.039 462.827 244.545C462.827 245.065 463.014 245.485 463.387 245.805C463.774 246.112 464.314 246.265 465.007 246.265ZM477.567 247.685C476.754 247.685 476.027 247.519 475.387 247.185C474.761 246.852 474.281 246.385 473.947 245.785L473.787 247.445H472.267V233.045H473.947V239.165C474.267 238.685 474.721 238.252 475.307 237.865C475.907 237.479 476.667 237.285 477.587 237.285C478.574 237.285 479.434 237.512 480.167 237.965C480.901 238.419 481.467 239.039 481.867 239.825C482.281 240.612 482.487 241.505 482.487 242.505C482.487 243.505 482.281 244.399 481.867 245.185C481.467 245.959 480.894 246.572 480.147 247.025C479.414 247.465 478.554 247.685 477.567 247.685ZM477.387 246.225C478.054 246.225 478.641 246.072 479.147 245.765C479.654 245.445 480.054 245.005 480.347 244.445C480.641 243.885 480.787 243.232 480.787 242.485C480.787 241.739 480.641 241.085 480.347 240.525C480.054 239.965 479.654 239.532 479.147 239.225C478.641 238.905 478.054 238.745 477.387 238.745C476.721 238.745 476.134 238.905 475.627 239.225C475.121 239.532 474.721 239.965 474.427 240.525C474.134 241.085 473.987 241.739 473.987 242.485C473.987 243.232 474.134 243.885 474.427 244.445C474.721 245.005 475.121 245.445 475.627 245.765C476.134 246.072 476.721 246.225 477.387 246.225ZM484.826 247.445V233.045H486.506V247.445H484.826ZM493.719 247.685C492.773 247.685 491.933 247.472 491.199 247.045C490.466 246.605 489.886 245.999 489.459 245.225C489.046 244.452 488.839 243.539 488.839 242.485C488.839 241.445 489.046 240.539 489.459 239.765C489.873 238.979 490.446 238.372 491.179 237.945C491.926 237.505 492.786 237.285 493.759 237.285C494.719 237.285 495.546 237.505 496.239 237.945C496.946 238.372 497.486 238.939 497.859 239.645C498.233 240.352 498.419 241.112 498.419 241.925C498.419 242.072 498.413 242.219 498.399 242.365C498.399 242.512 498.399 242.679 498.399 242.865H490.499C490.539 243.625 490.713 244.259 491.019 244.765C491.339 245.259 491.733 245.632 492.199 245.885C492.679 246.139 493.186 246.265 493.719 246.265C494.413 246.265 494.993 246.105 495.459 245.785C495.926 245.465 496.266 245.032 496.479 244.485H498.139C497.873 245.405 497.359 246.172 496.599 246.785C495.853 247.385 494.893 247.685 493.719 247.685ZM493.719 238.705C492.919 238.705 492.206 238.952 491.579 239.445C490.966 239.925 490.613 240.632 490.519 241.565H496.759C496.719 240.672 496.413 239.972 495.839 239.465C495.266 238.959 494.559 238.705 493.719 238.705ZM505.939 247.445V237.525H507.459L507.579 238.965C507.899 238.432 508.326 238.019 508.859 237.725C509.392 237.432 509.992 237.285 510.659 237.285C511.446 237.285 512.119 237.445 512.679 237.765C513.252 238.085 513.692 238.572 513.999 239.225C514.346 238.625 514.819 238.152 515.419 237.805C516.032 237.459 516.692 237.285 517.399 237.285C518.586 237.285 519.532 237.645 520.239 238.365C520.946 239.072 521.299 240.165 521.299 241.645V247.445H519.639V241.825C519.639 240.799 519.432 240.025 519.019 239.505C518.606 238.985 518.012 238.725 517.239 238.725C516.439 238.725 515.772 239.039 515.239 239.665C514.719 240.279 514.459 241.159 514.459 242.305V247.445H512.779V241.825C512.779 240.799 512.572 240.025 512.159 239.505C511.746 238.985 511.152 238.725 510.379 238.725C509.592 238.725 508.932 239.039 508.399 239.665C507.879 240.279 507.619 241.159 507.619 242.305V247.445H505.939ZM528.35 247.685C527.416 247.685 526.576 247.472 525.83 247.045C525.083 246.619 524.49 246.019 524.05 245.245C523.623 244.459 523.41 243.539 523.41 242.485C523.41 241.432 523.63 240.519 524.07 239.745C524.51 238.959 525.103 238.352 525.85 237.925C526.61 237.499 527.456 237.285 528.39 237.285C529.323 237.285 530.163 237.499 530.91 237.925C531.656 238.352 532.243 238.959 532.67 239.745C533.11 240.519 533.33 241.432 533.33 242.485C533.33 243.539 533.11 244.459 532.67 245.245C532.23 246.019 531.63 246.619 530.87 247.045C530.123 247.472 529.283 247.685 528.35 247.685ZM528.35 246.245C528.923 246.245 529.456 246.105 529.95 245.825C530.443 245.545 530.843 245.125 531.15 244.565C531.456 244.005 531.61 243.312 531.61 242.485C531.61 241.659 531.456 240.965 531.15 240.405C530.856 239.845 530.463 239.425 529.97 239.145C529.476 238.865 528.95 238.725 528.39 238.725C527.816 238.725 527.283 238.865 526.79 239.145C526.296 239.425 525.896 239.845 525.59 240.405C525.283 240.965 525.13 241.659 525.13 242.485C525.13 243.312 525.283 244.005 525.59 244.565C525.896 245.125 526.29 245.545 526.77 245.825C527.263 246.105 527.79 246.245 528.35 246.245ZM535.666 247.445V237.525H537.186L537.306 238.965C537.626 238.432 538.052 238.019 538.586 237.725C539.119 237.432 539.719 237.285 540.386 237.285C541.172 237.285 541.846 237.445 542.406 237.765C542.979 238.085 543.419 238.572 543.726 239.225C544.072 238.625 544.546 238.152 545.146 237.805C545.759 237.459 546.419 237.285 547.126 237.285C548.312 237.285 549.259 237.645 549.966 238.365C550.672 239.072 551.026 240.165 551.026 241.645V247.445H549.366V241.825C549.366 240.799 549.159 240.025 548.746 239.505C548.332 238.985 547.739 238.725 546.966 238.725C546.166 238.725 545.499 239.039 544.966 239.665C544.446 240.279 544.186 241.159 544.186 242.305V247.445H542.506V241.825C542.506 240.799 542.299 240.025 541.886 239.505C541.472 238.985 540.879 238.725 540.106 238.725C539.319 238.725 538.659 239.039 538.126 239.665C537.606 240.279 537.346 241.159 537.346 242.305V247.445H535.666ZM558.016 247.685C557.07 247.685 556.23 247.472 555.496 247.045C554.763 246.605 554.183 245.999 553.756 245.225C553.343 244.452 553.136 243.539 553.136 242.485C553.136 241.445 553.343 240.539 553.756 239.765C554.17 238.979 554.743 238.372 555.476 237.945C556.223 237.505 557.083 237.285 558.056 237.285C559.016 237.285 559.843 237.505 560.536 237.945C561.243 238.372 561.783 238.939 562.156 239.645C562.53 240.352 562.716 241.112 562.716 241.925C562.716 242.072 562.71 242.219 562.696 242.365C562.696 242.512 562.696 242.679 562.696 242.865H554.796C554.836 243.625 555.01 244.259 555.316 244.765C555.636 245.259 556.03 245.632 556.496 245.885C556.976 246.139 557.483 246.265 558.016 246.265C558.71 246.265 559.29 246.105 559.756 245.785C560.223 245.465 560.563 245.032 560.776 244.485H562.436C562.17 245.405 561.656 246.172 560.896 246.785C560.15 247.385 559.19 247.685 558.016 247.685ZM558.016 238.705C557.216 238.705 556.503 238.952 555.876 239.445C555.263 239.925 554.91 240.632 554.816 241.565H561.056C561.016 240.672 560.71 239.972 560.136 239.465C559.563 238.959 558.856 238.705 558.016 238.705ZM564.943 247.445V237.525H566.463L566.563 239.305C566.883 238.679 567.343 238.185 567.943 237.825C568.543 237.465 569.223 237.285 569.983 237.285C571.156 237.285 572.09 237.645 572.783 238.365C573.49 239.072 573.843 240.165 573.843 241.645V247.445H572.163V241.825C572.163 239.759 571.31 238.725 569.603 238.725C568.75 238.725 568.036 239.039 567.463 239.665C566.903 240.279 566.623 241.159 566.623 242.305V247.445H564.943ZM580.308 247.445C579.402 247.445 578.688 247.225 578.168 246.785C577.648 246.345 577.388 245.552 577.388 244.405V238.945H575.668V237.525H577.388L577.608 235.145H579.068V237.525H581.988V238.945H579.068V244.405C579.068 245.032 579.195 245.459 579.448 245.685C579.702 245.899 580.148 246.005 580.788 246.005H581.828V247.445H580.308ZM587.923 247.685C586.736 247.685 585.749 247.385 584.963 246.785C584.176 246.185 583.716 245.372 583.583 244.345H585.303C585.409 244.865 585.683 245.319 586.123 245.705C586.576 246.079 587.183 246.265 587.943 246.265C588.649 246.265 589.169 246.119 589.503 245.825C589.836 245.519 590.003 245.159 590.003 244.745C590.003 244.145 589.783 243.745 589.343 243.545C588.916 243.345 588.309 243.165 587.523 243.005C586.989 242.899 586.456 242.745 585.923 242.545C585.389 242.345 584.943 242.065 584.583 241.705C584.223 241.332 584.043 240.845 584.043 240.245C584.043 239.379 584.363 238.672 585.003 238.125C585.656 237.565 586.536 237.285 587.643 237.285C588.696 237.285 589.556 237.552 590.223 238.085C590.903 238.605 591.296 239.352 591.403 240.325H589.743C589.676 239.819 589.456 239.425 589.083 239.145C588.723 238.852 588.236 238.705 587.623 238.705C587.023 238.705 586.556 238.832 586.223 239.085C585.903 239.339 585.743 239.672 585.743 240.085C585.743 240.485 585.949 240.799 586.363 241.025C586.789 241.252 587.363 241.445 588.083 241.605C588.696 241.739 589.276 241.905 589.823 242.105C590.383 242.292 590.836 242.579 591.183 242.965C591.543 243.339 591.723 243.885 591.723 244.605C591.736 245.499 591.396 246.239 590.703 246.825C590.023 247.399 589.096 247.685 587.923 247.685ZM185.807 267.325C185.473 267.325 185.193 267.219 184.967 267.005C184.753 266.779 184.647 266.499 184.647 266.165C184.647 265.845 184.753 265.579 184.967 265.365C185.193 265.152 185.473 265.045 185.807 265.045C186.127 265.045 186.4 265.152 186.627 265.365C186.853 265.579 186.967 265.845 186.967 266.165C186.967 266.499 186.853 266.779 186.627 267.005C186.4 267.219 186.127 267.325 185.807 267.325ZM184.967 279.445V269.525H186.647V279.445H184.967ZM189.572 279.445V269.525H191.092L191.192 271.305C191.512 270.679 191.972 270.185 192.572 269.825C193.172 269.465 193.852 269.285 194.612 269.285C195.785 269.285 196.719 269.645 197.412 270.365C198.119 271.072 198.472 272.165 198.472 273.645V279.445H196.792V273.825C196.792 271.759 195.939 270.725 194.232 270.725C193.379 270.725 192.665 271.039 192.092 271.665C191.532 272.279 191.252 273.159 191.252 274.305V279.445H189.572ZM210.83 279.685C209.897 279.685 209.057 279.472 208.31 279.045C207.564 278.619 206.97 278.019 206.53 277.245C206.104 276.459 205.89 275.539 205.89 274.485C205.89 273.432 206.11 272.519 206.55 271.745C206.99 270.959 207.584 270.352 208.33 269.925C209.09 269.499 209.937 269.285 210.87 269.285C211.804 269.285 212.644 269.499 213.39 269.925C214.137 270.352 214.724 270.959 215.15 271.745C215.59 272.519 215.81 273.432 215.81 274.485C215.81 275.539 215.59 276.459 215.15 277.245C214.71 278.019 214.11 278.619 213.35 279.045C212.604 279.472 211.764 279.685 210.83 279.685ZM210.83 278.245C211.404 278.245 211.937 278.105 212.43 277.825C212.924 277.545 213.324 277.125 213.63 276.565C213.937 276.005 214.09 275.312 214.09 274.485C214.09 273.659 213.937 272.965 213.63 272.405C213.337 271.845 212.944 271.425 212.45 271.145C211.957 270.865 211.43 270.725 210.87 270.725C210.297 270.725 209.764 270.865 209.27 271.145C208.777 271.425 208.377 271.845 208.07 272.405C207.764 272.965 207.61 273.659 207.61 274.485C207.61 275.312 207.764 276.005 208.07 276.565C208.377 277.125 208.77 277.545 209.25 277.825C209.744 278.105 210.27 278.245 210.83 278.245ZM221.766 279.685C220.593 279.685 219.659 279.332 218.966 278.625C218.273 277.905 217.926 276.805 217.926 275.325V269.525H219.606V275.145C219.606 277.212 220.453 278.245 222.146 278.245C223.013 278.245 223.726 277.939 224.286 277.325C224.859 276.699 225.146 275.812 225.146 274.665V269.525H226.826V279.445H225.306L225.186 277.665C224.879 278.292 224.419 278.785 223.806 279.145C223.206 279.505 222.526 279.685 221.766 279.685ZM229.591 279.445V269.525H231.111L231.251 271.425C231.558 270.772 232.025 270.252 232.651 269.865C233.278 269.479 234.051 269.285 234.971 269.285V271.045H234.511C233.925 271.045 233.385 271.152 232.891 271.365C232.398 271.565 232.005 271.912 231.711 272.405C231.418 272.899 231.271 273.579 231.271 274.445V279.445H229.591ZM244.15 279.445L241.25 269.525H242.93L245.03 277.305L247.35 269.525H249.25L251.59 277.305L253.67 269.525H255.37L252.47 279.445H250.75L248.31 271.265L245.87 279.445H244.15ZM261.317 279.685C260.37 279.685 259.53 279.472 258.797 279.045C258.064 278.605 257.484 277.999 257.057 277.225C256.644 276.452 256.437 275.539 256.437 274.485C256.437 273.445 256.644 272.539 257.057 271.765C257.47 270.979 258.044 270.372 258.777 269.945C259.524 269.505 260.384 269.285 261.357 269.285C262.317 269.285 263.144 269.505 263.837 269.945C264.544 270.372 265.084 270.939 265.457 271.645C265.83 272.352 266.017 273.112 266.017 273.925C266.017 274.072 266.01 274.219 265.997 274.365C265.997 274.512 265.997 274.679 265.997 274.865H258.097C258.137 275.625 258.31 276.259 258.617 276.765C258.937 277.259 259.33 277.632 259.797 277.885C260.277 278.139 260.784 278.265 261.317 278.265C262.01 278.265 262.59 278.105 263.057 277.785C263.524 277.465 263.864 277.032 264.077 276.485H265.737C265.47 277.405 264.957 278.172 264.197 278.785C263.45 279.385 262.49 279.685 261.317 279.685ZM261.317 270.705C260.517 270.705 259.804 270.952 259.177 271.445C258.564 271.925 258.21 272.632 258.117 273.565H264.357C264.317 272.672 264.01 271.972 263.437 271.465C262.864 270.959 262.157 270.705 261.317 270.705ZM268.244 279.445V265.045H269.924V279.445H268.244ZM277.237 279.685C276.291 279.685 275.437 279.472 274.677 279.045C273.931 278.605 273.337 277.999 272.897 277.225C272.471 276.439 272.257 275.525 272.257 274.485C272.257 273.445 272.471 272.539 272.897 271.765C273.337 270.979 273.931 270.372 274.677 269.945C275.437 269.505 276.291 269.285 277.237 269.285C278.411 269.285 279.397 269.592 280.197 270.205C281.011 270.819 281.524 271.639 281.737 272.665H280.017C279.884 272.052 279.557 271.579 279.037 271.245C278.517 270.899 277.911 270.725 277.217 270.725C276.657 270.725 276.131 270.865 275.637 271.145C275.144 271.425 274.744 271.845 274.437 272.405C274.131 272.965 273.977 273.659 273.977 274.485C273.977 275.312 274.131 276.005 274.437 276.565C274.744 277.125 275.144 277.552 275.637 277.845C276.131 278.125 276.657 278.265 277.217 278.265C277.911 278.265 278.517 278.099 279.037 277.765C279.557 277.419 279.884 276.932 280.017 276.305H281.737C281.537 277.305 281.031 278.119 280.217 278.745C279.404 279.372 278.411 279.685 277.237 279.685ZM288.604 279.685C287.67 279.685 286.83 279.472 286.084 279.045C285.337 278.619 284.744 278.019 284.304 277.245C283.877 276.459 283.664 275.539 283.664 274.485C283.664 273.432 283.884 272.519 284.324 271.745C284.764 270.959 285.357 270.352 286.104 269.925C286.864 269.499 287.71 269.285 288.644 269.285C289.577 269.285 290.417 269.499 291.164 269.925C291.91 270.352 292.497 270.959 292.924 271.745C293.364 272.519 293.584 273.432 293.584 274.485C293.584 275.539 293.364 276.459 292.924 277.245C292.484 278.019 291.884 278.619 291.124 279.045C290.377 279.472 289.537 279.685 288.604 279.685ZM288.604 278.245C289.177 278.245 289.71 278.105 290.204 277.825C290.697 277.545 291.097 277.125 291.404 276.565C291.71 276.005 291.864 275.312 291.864 274.485C291.864 273.659 291.71 272.965 291.404 272.405C291.11 271.845 290.717 271.425 290.224 271.145C289.73 270.865 289.204 270.725 288.644 270.725C288.07 270.725 287.537 270.865 287.044 271.145C286.55 271.425 286.15 271.845 285.844 272.405C285.537 272.965 285.384 273.659 285.384 274.485C285.384 275.312 285.537 276.005 285.844 276.565C286.15 277.125 286.544 277.545 287.024 277.825C287.517 278.105 288.044 278.245 288.604 278.245ZM295.92 279.445V269.525H297.44L297.56 270.965C297.88 270.432 298.306 270.019 298.84 269.725C299.373 269.432 299.973 269.285 300.64 269.285C301.426 269.285 302.1 269.445 302.66 269.765C303.233 270.085 303.673 270.572 303.98 271.225C304.326 270.625 304.8 270.152 305.4 269.805C306.013 269.459 306.673 269.285 307.38 269.285C308.566 269.285 309.513 269.645 310.22 270.365C310.926 271.072 311.28 272.165 311.28 273.645V279.445H309.62V273.825C309.62 272.799 309.413 272.025 309 271.505C308.586 270.985 307.993 270.725 307.22 270.725C306.42 270.725 305.753 271.039 305.22 271.665C304.7 272.279 304.44 273.159 304.44 274.305V279.445H302.76V273.825C302.76 272.799 302.553 272.025 302.14 271.505C301.726 270.985 301.133 270.725 300.36 270.725C299.573 270.725 298.913 271.039 298.38 271.665C297.86 272.279 297.6 273.159 297.6 274.305V279.445H295.92ZM314.83 267.325C314.497 267.325 314.217 267.219 313.99 267.005C313.777 266.779 313.67 266.499 313.67 266.165C313.67 265.845 313.777 265.579 313.99 265.365C314.217 265.152 314.497 265.045 314.83 265.045C315.15 265.045 315.424 265.152 315.65 265.365C315.877 265.579 315.99 265.845 315.99 266.165C315.99 266.499 315.877 266.779 315.65 267.005C315.424 267.219 315.15 267.325 314.83 267.325ZM313.99 279.445V269.525H315.67V279.445H313.99ZM318.595 279.445V269.525H320.115L320.215 271.305C320.535 270.679 320.995 270.185 321.595 269.825C322.195 269.465 322.875 269.285 323.635 269.285C324.809 269.285 325.742 269.645 326.435 270.365C327.142 271.072 327.495 272.165 327.495 273.645V279.445H325.815V273.825C325.815 271.759 324.962 270.725 323.255 270.725C322.402 270.725 321.689 271.039 321.115 271.665C320.555 272.279 320.275 273.159 320.275 274.305V279.445H318.595ZM333.961 276.325C333.401 276.325 332.887 276.252 332.421 276.105L331.421 277.045C331.567 277.152 331.747 277.245 331.961 277.325C332.187 277.392 332.507 277.459 332.921 277.525C333.334 277.579 333.914 277.639 334.661 277.705C335.994 277.799 336.947 278.105 337.521 278.625C338.094 279.145 338.381 279.825 338.381 280.665C338.381 281.239 338.221 281.785 337.901 282.305C337.594 282.825 337.114 283.252 336.461 283.585C335.821 283.919 334.994 284.085 333.981 284.085C333.087 284.085 332.294 283.965 331.601 283.725C330.907 283.499 330.367 283.145 329.981 282.665C329.594 282.199 329.401 281.605 329.401 280.885C329.401 280.512 329.501 280.105 329.701 279.665C329.901 279.239 330.274 278.832 330.821 278.445C330.527 278.325 330.274 278.199 330.061 278.065C329.861 277.919 329.674 277.759 329.501 277.585V277.125L331.201 275.445C330.414 274.779 330.021 273.899 330.021 272.805C330.021 272.152 330.174 271.559 330.481 271.025C330.787 270.492 331.234 270.072 331.821 269.765C332.407 269.445 333.121 269.285 333.961 269.285C334.534 269.285 335.054 269.365 335.521 269.525H339.181V270.785L337.321 270.865C337.707 271.425 337.901 272.072 337.901 272.805C337.901 273.459 337.741 274.052 337.421 274.585C337.114 275.119 336.667 275.545 336.081 275.865C335.507 276.172 334.801 276.325 333.961 276.325ZM333.961 274.945C334.667 274.945 335.227 274.765 335.641 274.405C336.067 274.032 336.281 273.499 336.281 272.805C336.281 272.125 336.067 271.605 335.641 271.245C335.227 270.872 334.667 270.685 333.961 270.685C333.241 270.685 332.667 270.872 332.241 271.245C331.827 271.605 331.621 272.125 331.621 272.805C331.621 273.499 331.827 274.032 332.241 274.405C332.667 274.765 333.241 274.945 333.961 274.945ZM331.041 280.725C331.041 281.392 331.321 281.885 331.881 282.205C332.441 282.539 333.141 282.705 333.981 282.705C334.807 282.705 335.467 282.525 335.961 282.165C336.467 281.805 336.721 281.325 336.721 280.725C336.721 280.299 336.547 279.925 336.201 279.605C335.854 279.299 335.214 279.119 334.281 279.065C333.547 279.012 332.914 278.945 332.381 278.865C331.834 279.159 331.474 279.472 331.301 279.805C331.127 280.152 331.041 280.459 331.041 280.725ZM339.736 281.825L340.896 277.405H342.636L340.896 281.825H339.736ZM354.483 279.685C353.537 279.685 352.683 279.472 351.923 279.045C351.177 278.605 350.583 277.999 350.143 277.225C349.717 276.439 349.503 275.525 349.503 274.485C349.503 273.445 349.717 272.539 350.143 271.765C350.583 270.979 351.177 270.372 351.923 269.945C352.683 269.505 353.537 269.285 354.483 269.285C355.657 269.285 356.643 269.592 357.443 270.205C358.257 270.819 358.77 271.639 358.983 272.665H357.263C357.13 272.052 356.803 271.579 356.283 271.245C355.763 270.899 355.157 270.725 354.463 270.725C353.903 270.725 353.377 270.865 352.883 271.145C352.39 271.425 351.99 271.845 351.683 272.405C351.377 272.965 351.223 273.659 351.223 274.485C351.223 275.312 351.377 276.005 351.683 276.565C351.99 277.125 352.39 277.552 352.883 277.845C353.377 278.125 353.903 278.265 354.463 278.265C355.157 278.265 355.763 278.099 356.283 277.765C356.803 277.419 357.13 276.932 357.263 276.305H358.983C358.783 277.305 358.277 278.119 357.463 278.745C356.65 279.372 355.657 279.685 354.483 279.685ZM364.95 279.685C363.776 279.685 362.843 279.332 362.15 278.625C361.456 277.905 361.11 276.805 361.11 275.325V269.525H362.79V275.145C362.79 277.212 363.636 278.245 365.33 278.245C366.196 278.245 366.91 277.939 367.47 277.325C368.043 276.699 368.33 275.812 368.33 274.665V269.525H370.01V279.445H368.49L368.37 277.665C368.063 278.292 367.603 278.785 366.99 279.145C366.39 279.505 365.71 279.685 364.95 279.685ZM372.775 279.445V265.045H374.455V279.445H372.775ZM378.229 267.325C377.895 267.325 377.615 267.219 377.389 267.005C377.175 266.779 377.069 266.499 377.069 266.165C377.069 265.845 377.175 265.579 377.389 265.365C377.615 265.152 377.895 265.045 378.229 265.045C378.549 265.045 378.822 265.152 379.049 265.365C379.275 265.579 379.389 265.845 379.389 266.165C379.389 266.499 379.275 266.779 379.049 267.005C378.822 267.219 378.549 267.325 378.229 267.325ZM377.389 279.445V269.525H379.069V279.445H377.389ZM381.994 279.445V269.525H383.514L383.614 271.305C383.934 270.679 384.394 270.185 384.994 269.825C385.594 269.465 386.274 269.285 387.034 269.285C388.207 269.285 389.14 269.645 389.834 270.365C390.54 271.072 390.894 272.165 390.894 273.645V279.445H389.214V273.825C389.214 271.759 388.36 270.725 386.654 270.725C385.8 270.725 385.087 271.039 384.514 271.665C383.954 272.279 383.674 273.159 383.674 274.305V279.445H381.994ZM396.739 279.685C395.912 279.685 395.226 279.545 394.679 279.265C394.132 278.985 393.726 278.612 393.459 278.145C393.192 277.679 393.059 277.172 393.059 276.625C393.059 275.612 393.446 274.832 394.219 274.285C394.992 273.739 396.046 273.465 397.379 273.465H400.059V273.345C400.059 272.479 399.832 271.825 399.379 271.385C398.926 270.932 398.319 270.705 397.559 270.705C396.906 270.705 396.339 270.872 395.859 271.205C395.392 271.525 395.099 271.999 394.979 272.625H393.259C393.326 271.905 393.566 271.299 393.979 270.805C394.406 270.312 394.932 269.939 395.559 269.685C396.186 269.419 396.852 269.285 397.559 269.285C398.946 269.285 399.986 269.659 400.679 270.405C401.386 271.139 401.739 272.119 401.739 273.345V279.445H400.239L400.139 277.665C399.859 278.225 399.446 278.705 398.899 279.105C398.366 279.492 397.646 279.685 396.739 279.685ZM396.999 278.265C397.639 278.265 398.186 278.099 398.639 277.765C399.106 277.432 399.459 276.999 399.699 276.465C399.939 275.932 400.059 275.372 400.059 274.785V274.765H397.519C396.532 274.765 395.832 274.939 395.419 275.285C395.019 275.619 394.819 276.039 394.819 276.545C394.819 277.065 395.006 277.485 395.379 277.805C395.766 278.112 396.306 278.265 396.999 278.265ZM404.259 279.445V269.525H405.779L405.919 271.425C406.226 270.772 406.693 270.252 407.319 269.865C407.946 269.479 408.719 269.285 409.639 269.285V271.045H409.179C408.593 271.045 408.053 271.152 407.559 271.365C407.066 271.565 406.673 271.912 406.379 272.405C406.086 272.899 405.939 273.579 405.939 274.445V279.445H404.259ZM412.605 283.845L415.065 278.485H414.485L410.545 269.525H412.365L415.645 277.245L419.125 269.525H420.865L414.365 283.845H412.605ZM427.931 279.445V265.045H429.611V271.225C429.945 270.612 430.418 270.139 431.031 269.805C431.645 269.459 432.311 269.285 433.031 269.285C434.178 269.285 435.098 269.645 435.791 270.365C436.485 271.072 436.831 272.165 436.831 273.645V279.445H435.171V273.825C435.171 271.759 434.338 270.725 432.671 270.725C431.805 270.725 431.078 271.039 430.491 271.665C429.905 272.279 429.611 273.159 429.611 274.305V279.445H427.931ZM442.677 279.685C441.85 279.685 441.163 279.545 440.617 279.265C440.07 278.985 439.663 278.612 439.397 278.145C439.13 277.679 438.997 277.172 438.997 276.625C438.997 275.612 439.383 274.832 440.157 274.285C440.93 273.739 441.983 273.465 443.317 273.465H445.997V273.345C445.997 272.479 445.77 271.825 445.317 271.385C444.863 270.932 444.257 270.705 443.497 270.705C442.843 270.705 442.277 270.872 441.797 271.205C441.33 271.525 441.037 271.999 440.917 272.625H439.197C439.263 271.905 439.503 271.299 439.917 270.805C440.343 270.312 440.87 269.939 441.497 269.685C442.123 269.419 442.79 269.285 443.497 269.285C444.883 269.285 445.923 269.659 446.617 270.405C447.323 271.139 447.677 272.119 447.677 273.345V279.445H446.177L446.077 277.665C445.797 278.225 445.383 278.705 444.837 279.105C444.303 279.492 443.583 279.685 442.677 279.685ZM442.937 278.265C443.577 278.265 444.123 278.099 444.577 277.765C445.043 277.432 445.397 276.999 445.637 276.465C445.877 275.932 445.997 275.372 445.997 274.785V274.765H443.457C442.47 274.765 441.77 274.939 441.357 275.285C440.957 275.619 440.757 276.039 440.757 276.545C440.757 277.065 440.943 277.485 441.317 277.805C441.703 278.112 442.243 278.265 442.937 278.265ZM452.686 279.445L448.926 269.525H450.686L453.666 277.825L456.666 269.525H458.386L454.626 279.445H452.686ZM464.208 279.685C463.261 279.685 462.421 279.472 461.688 279.045C460.954 278.605 460.374 277.999 459.948 277.225C459.534 276.452 459.328 275.539 459.328 274.485C459.328 273.445 459.534 272.539 459.948 271.765C460.361 270.979 460.934 270.372 461.668 269.945C462.414 269.505 463.274 269.285 464.248 269.285C465.208 269.285 466.034 269.505 466.728 269.945C467.434 270.372 467.974 270.939 468.348 271.645C468.721 272.352 468.908 273.112 468.908 273.925C468.908 274.072 468.901 274.219 468.888 274.365C468.888 274.512 468.888 274.679 468.888 274.865H460.988C461.028 275.625 461.201 276.259 461.508 276.765C461.828 277.259 462.221 277.632 462.688 277.885C463.168 278.139 463.674 278.265 464.208 278.265C464.901 278.265 465.481 278.105 465.948 277.785C466.414 277.465 466.754 277.032 466.968 276.485H468.628C468.361 277.405 467.848 278.172 467.088 278.785C466.341 279.385 465.381 279.685 464.208 279.685ZM464.208 270.705C463.408 270.705 462.694 270.952 462.068 271.445C461.454 271.925 461.101 272.632 461.008 273.565H467.248C467.208 272.672 466.901 271.972 466.328 271.465C465.754 270.959 465.048 270.705 464.208 270.705ZM471.134 279.445V269.525H472.654L472.754 271.305C473.074 270.679 473.534 270.185 474.134 269.825C474.734 269.465 475.414 269.285 476.174 269.285C477.348 269.285 478.281 269.645 478.974 270.365C479.681 271.072 480.034 272.165 480.034 273.645V279.445H478.354V273.825C478.354 271.759 477.501 270.725 475.794 270.725C474.941 270.725 474.228 271.039 473.654 271.665C473.094 272.279 472.814 273.159 472.814 274.305V279.445H471.134ZM483.16 279.545C482.826 279.545 482.546 279.439 482.32 279.225C482.106 278.999 482 278.725 482 278.405C482 278.085 482.106 277.819 482.32 277.605C482.546 277.379 482.826 277.265 483.16 277.265C483.48 277.265 483.746 277.379 483.96 277.605C484.186 277.819 484.3 278.085 484.3 278.405C484.3 278.725 484.186 278.999 483.96 279.225C483.746 279.439 483.48 279.545 483.16 279.545Z" fill="#2C2F24"/>
<rect x="159.756" y="328.445" width="163" height="64" rx="32" fill="#AD343E"/>
<path d="M192.938 365.445V354.245H197.434C198.597 354.245 199.482 354.517 200.09 355.061C200.709 355.595 201.018 356.283 201.018 357.125C201.018 357.829 200.826 358.395 200.442 358.821C200.069 359.237 199.61 359.52 199.066 359.669C199.706 359.797 200.234 360.117 200.65 360.629C201.066 361.131 201.274 361.717 201.274 362.389C201.274 363.275 200.954 364.005 200.314 364.581C199.674 365.157 198.767 365.445 197.594 365.445H192.938ZM194.986 358.949H197.13C197.706 358.949 198.149 358.816 198.458 358.549C198.767 358.283 198.922 357.904 198.922 357.413C198.922 356.944 198.767 356.576 198.458 356.309C198.159 356.032 197.706 355.893 197.098 355.893H194.986V358.949ZM194.986 363.781H197.274C197.882 363.781 198.351 363.643 198.682 363.365C199.023 363.077 199.194 362.677 199.194 362.165C199.194 361.643 199.018 361.232 198.666 360.933C198.314 360.635 197.839 360.485 197.242 360.485H194.986V363.781ZM206.792 365.637C206.024 365.637 205.331 365.461 204.712 365.109C204.104 364.757 203.619 364.272 203.256 363.653C202.904 363.024 202.728 362.299 202.728 361.477C202.728 360.656 202.909 359.936 203.272 359.317C203.635 358.688 204.12 358.197 204.728 357.845C205.347 357.493 206.04 357.317 206.808 357.317C207.565 357.317 208.248 357.493 208.856 357.845C209.475 358.197 209.96 358.688 210.312 359.317C210.675 359.936 210.856 360.656 210.856 361.477C210.856 362.299 210.675 363.024 210.312 363.653C209.96 364.272 209.475 364.757 208.856 365.109C208.237 365.461 207.549 365.637 206.792 365.637ZM206.792 363.861C207.325 363.861 207.789 363.664 208.184 363.269C208.579 362.864 208.776 362.267 208.776 361.477C208.776 360.688 208.579 360.096 208.184 359.701C207.789 359.296 207.331 359.093 206.808 359.093C206.264 359.093 205.795 359.296 205.4 359.701C205.016 360.096 204.824 360.688 204.824 361.477C204.824 362.267 205.016 362.864 205.4 363.269C205.795 363.664 206.259 363.861 206.792 363.861ZM216.495 365.637C215.727 365.637 215.034 365.461 214.415 365.109C213.807 364.757 213.322 364.272 212.959 363.653C212.607 363.024 212.431 362.299 212.431 361.477C212.431 360.656 212.612 359.936 212.975 359.317C213.338 358.688 213.823 358.197 214.431 357.845C215.05 357.493 215.743 357.317 216.511 357.317C217.268 357.317 217.951 357.493 218.559 357.845C219.178 358.197 219.663 358.688 220.015 359.317C220.378 359.936 220.559 360.656 220.559 361.477C220.559 362.299 220.378 363.024 220.015 363.653C219.663 364.272 219.178 364.757 218.559 365.109C217.94 365.461 217.252 365.637 216.495 365.637ZM216.495 363.861C217.028 363.861 217.492 363.664 217.887 363.269C218.282 362.864 218.479 362.267 218.479 361.477C218.479 360.688 218.282 360.096 217.887 359.701C217.492 359.296 217.034 359.093 216.511 359.093C215.967 359.093 215.498 359.296 215.103 359.701C214.719 360.096 214.527 360.688 214.527 361.477C214.527 362.267 214.719 362.864 215.103 363.269C215.498 363.664 215.962 363.861 216.495 363.861ZM222.39 365.445V353.925H224.438V360.725L227.254 357.509H229.686L226.438 361.125L230.214 365.445H227.654L224.438 361.461V365.445H222.39ZM234.624 365.445L238.72 354.245H241.024L245.12 365.445H242.944L242.048 362.853H237.68L236.768 365.445H234.624ZM238.24 361.253H241.488L239.856 356.597L238.24 361.253ZM252.984 365.445V355.893H249.72V354.245H258.312V355.893H255.032V365.445H252.984ZM261.157 365.637C260.475 365.637 259.915 365.531 259.477 365.317C259.04 365.093 258.715 364.8 258.501 364.437C258.288 364.075 258.181 363.675 258.181 363.237C258.181 362.501 258.469 361.904 259.045 361.445C259.621 360.987 260.485 360.757 261.637 360.757H263.653V360.565C263.653 360.021 263.499 359.621 263.189 359.365C262.88 359.109 262.496 358.981 262.037 358.981C261.621 358.981 261.259 359.083 260.949 359.285C260.64 359.477 260.448 359.765 260.373 360.149H258.373C258.427 359.573 258.619 359.072 258.949 358.645C259.291 358.219 259.728 357.893 260.261 357.669C260.795 357.435 261.392 357.317 262.053 357.317C263.184 357.317 264.075 357.6 264.725 358.165C265.376 358.731 265.701 359.531 265.701 360.565V365.445H263.957L263.765 364.165C263.531 364.592 263.2 364.944 262.773 365.221C262.357 365.499 261.819 365.637 261.157 365.637ZM261.621 364.037C262.208 364.037 262.661 363.845 262.981 363.461C263.312 363.077 263.52 362.603 263.605 362.037H261.861C261.317 362.037 260.928 362.139 260.693 362.341C260.459 362.533 260.341 362.773 260.341 363.061C260.341 363.371 260.459 363.611 260.693 363.781C260.928 363.952 261.237 364.037 261.621 364.037ZM272.36 365.637C271.762 365.637 271.24 365.525 270.792 365.301C270.344 365.077 269.981 364.763 269.704 364.357L269.48 365.445H267.656V353.925H269.704V358.645C269.96 358.293 270.296 357.984 270.712 357.717C271.138 357.451 271.688 357.317 272.36 357.317C273.106 357.317 273.773 357.499 274.36 357.861C274.946 358.224 275.41 358.72 275.752 359.349C276.093 359.979 276.264 360.693 276.264 361.493C276.264 362.293 276.093 363.008 275.752 363.637C275.41 364.256 274.946 364.747 274.36 365.109C273.773 365.461 273.106 365.637 272.36 365.637ZM271.928 363.845C272.578 363.845 273.117 363.627 273.544 363.189C273.97 362.752 274.184 362.187 274.184 361.493C274.184 360.8 273.97 360.229 273.544 359.781C273.117 359.333 272.578 359.109 271.928 359.109C271.266 359.109 270.722 359.333 270.296 359.781C269.88 360.219 269.672 360.784 269.672 361.477C269.672 362.171 269.88 362.741 270.296 363.189C270.722 363.627 271.266 363.845 271.928 363.845ZM278.093 365.445V353.925H280.141V365.445H278.093ZM286.09 365.637C285.29 365.637 284.581 365.467 283.962 365.125C283.343 364.784 282.858 364.304 282.506 363.685C282.154 363.067 281.978 362.352 281.978 361.541C281.978 360.72 282.149 359.989 282.49 359.349C282.842 358.709 283.322 358.213 283.93 357.861C284.549 357.499 285.274 357.317 286.106 357.317C286.885 357.317 287.573 357.488 288.17 357.829C288.767 358.171 289.231 358.64 289.562 359.237C289.903 359.824 290.074 360.48 290.074 361.205C290.074 361.323 290.069 361.445 290.058 361.573C290.058 361.701 290.053 361.835 290.042 361.973H284.01C284.053 362.592 284.266 363.077 284.65 363.429C285.045 363.781 285.519 363.957 286.074 363.957C286.49 363.957 286.837 363.867 287.114 363.685C287.402 363.493 287.615 363.248 287.754 362.949H289.834C289.685 363.451 289.434 363.909 289.082 364.325C288.741 364.731 288.314 365.051 287.802 365.285C287.301 365.52 286.73 365.637 286.09 365.637ZM286.106 358.981C285.605 358.981 285.162 359.125 284.778 359.413C284.394 359.691 284.149 360.117 284.042 360.693H287.994C287.962 360.171 287.77 359.755 287.418 359.445C287.066 359.136 286.629 358.981 286.106 358.981Z" fill="white"/>
<path d="M372.61 365.445V354.245H379.922V355.893H374.658V358.965H379.442V360.565H374.658V363.797H379.922V365.445H372.61ZM381.06 365.445L383.94 361.477L381.06 357.509H383.252L385.268 360.325L387.268 357.509H389.476L386.58 361.477L389.476 365.445H387.268L385.268 362.629L383.252 365.445H381.06ZM390.781 368.965V357.509H392.605L392.829 358.645C393.085 358.293 393.421 357.984 393.837 357.717C394.263 357.451 394.813 357.317 395.485 357.317C396.231 357.317 396.898 357.499 397.485 357.861C398.071 358.224 398.535 358.72 398.877 359.349C399.218 359.979 399.389 360.693 399.389 361.493C399.389 362.293 399.218 363.008 398.877 363.637C398.535 364.256 398.071 364.747 397.485 365.109C396.898 365.461 396.231 365.637 395.485 365.637C394.887 365.637 394.365 365.525 393.917 365.301C393.469 365.077 393.106 364.763 392.829 364.357V368.965H390.781ZM395.053 363.845C395.703 363.845 396.242 363.627 396.669 363.189C397.095 362.752 397.309 362.187 397.309 361.493C397.309 360.8 397.095 360.229 396.669 359.781C396.242 359.333 395.703 359.109 395.053 359.109C394.391 359.109 393.847 359.333 393.421 359.781C393.005 360.219 392.797 360.784 392.797 361.477C392.797 362.171 393.005 362.741 393.421 363.189C393.847 363.627 394.391 363.845 395.053 363.845ZM401.218 365.445V353.925H403.266V365.445H401.218ZM409.167 365.637C408.399 365.637 407.706 365.461 407.087 365.109C406.479 364.757 405.994 364.272 405.631 363.653C405.279 363.024 405.103 362.299 405.103 361.477C405.103 360.656 405.284 359.936 405.647 359.317C406.01 358.688 406.495 358.197 407.103 357.845C407.722 357.493 408.415 357.317 409.183 357.317C409.94 357.317 410.623 357.493 411.231 357.845C411.85 358.197 412.335 358.688 412.687 359.317C413.05 359.936 413.231 360.656 413.231 361.477C413.231 362.299 413.05 363.024 412.687 363.653C412.335 364.272 411.85 364.757 411.231 365.109C410.612 365.461 409.924 365.637 409.167 365.637ZM409.167 363.861C409.7 363.861 410.164 363.664 410.559 363.269C410.954 362.864 411.151 362.267 411.151 361.477C411.151 360.688 410.954 360.096 410.559 359.701C410.164 359.296 409.706 359.093 409.183 359.093C408.639 359.093 408.17 359.296 407.775 359.701C407.391 360.096 407.199 360.688 407.199 361.477C407.199 362.267 407.391 362.864 407.775 363.269C408.17 363.664 408.634 363.861 409.167 363.861ZM415.062 365.445V357.509H416.886L417.078 358.997C417.366 358.485 417.755 358.08 418.246 357.781C418.747 357.472 419.334 357.317 420.006 357.317V359.477H419.43C418.982 359.477 418.582 359.547 418.23 359.685C417.878 359.824 417.601 360.064 417.398 360.405C417.206 360.747 417.11 361.221 417.11 361.829V365.445H415.062ZM425.121 365.637C424.321 365.637 423.612 365.467 422.993 365.125C422.374 364.784 421.889 364.304 421.537 363.685C421.185 363.067 421.009 362.352 421.009 361.541C421.009 360.72 421.18 359.989 421.521 359.349C421.873 358.709 422.353 358.213 422.961 357.861C423.58 357.499 424.305 357.317 425.137 357.317C425.916 357.317 426.604 357.488 427.201 357.829C427.798 358.171 428.262 358.64 428.593 359.237C428.934 359.824 429.105 360.48 429.105 361.205C429.105 361.323 429.1 361.445 429.089 361.573C429.089 361.701 429.084 361.835 429.073 361.973H423.041C423.084 362.592 423.297 363.077 423.681 363.429C424.076 363.781 424.55 363.957 425.105 363.957C425.521 363.957 425.868 363.867 426.145 363.685C426.433 363.493 426.646 363.248 426.785 362.949H428.865C428.716 363.451 428.465 363.909 428.113 364.325C427.772 364.731 427.345 365.051 426.833 365.285C426.332 365.52 425.761 365.637 425.121 365.637ZM425.137 358.981C424.636 358.981 424.193 359.125 423.809 359.413C423.425 359.691 423.18 360.117 423.073 360.693H427.025C426.993 360.171 426.801 359.755 426.449 359.445C426.097 359.136 425.66 358.981 425.137 358.981ZM434.688 365.445V354.245H437.12L440.688 361.349L444.208 354.245H446.64V365.445H444.592V357.717L441.472 363.845H439.856L436.736 357.717V365.445H434.688ZM452.621 365.637C451.821 365.637 451.112 365.467 450.493 365.125C449.874 364.784 449.389 364.304 449.037 363.685C448.685 363.067 448.509 362.352 448.509 361.541C448.509 360.72 448.68 359.989 449.021 359.349C449.373 358.709 449.853 358.213 450.461 357.861C451.08 357.499 451.805 357.317 452.637 357.317C453.416 357.317 454.104 357.488 454.701 357.829C455.298 358.171 455.762 358.64 456.093 359.237C456.434 359.824 456.605 360.48 456.605 361.205C456.605 361.323 456.6 361.445 456.589 361.573C456.589 361.701 456.584 361.835 456.573 361.973H450.541C450.584 362.592 450.797 363.077 451.181 363.429C451.576 363.781 452.05 363.957 452.605 363.957C453.021 363.957 453.368 363.867 453.645 363.685C453.933 363.493 454.146 363.248 454.285 362.949H456.365C456.216 363.451 455.965 363.909 455.613 364.325C455.272 364.731 454.845 365.051 454.333 365.285C453.832 365.52 453.261 365.637 452.621 365.637ZM452.637 358.981C452.136 358.981 451.693 359.125 451.309 359.413C450.925 359.691 450.68 360.117 450.573 360.693H454.525C454.493 360.171 454.301 359.755 453.949 359.445C453.597 359.136 453.16 358.981 452.637 358.981ZM458.328 365.445V357.509H460.136L460.296 358.853C460.541 358.384 460.893 358.011 461.352 357.733C461.821 357.456 462.37 357.317 463 357.317C463.981 357.317 464.744 357.627 465.288 358.245C465.832 358.864 466.104 359.771 466.104 360.965V365.445H464.056V361.157C464.056 360.475 463.917 359.952 463.64 359.589C463.362 359.227 462.93 359.045 462.344 359.045C461.768 359.045 461.293 359.248 460.92 359.653C460.557 360.059 460.376 360.624 460.376 361.349V365.445H458.328ZM471.038 365.637C470.046 365.637 469.278 365.328 468.734 364.709C468.201 364.091 467.934 363.184 467.934 361.989V357.509H469.966V361.797C469.966 362.48 470.105 363.003 470.382 363.365C470.659 363.728 471.097 363.909 471.694 363.909C472.259 363.909 472.723 363.707 473.086 363.301C473.459 362.896 473.646 362.331 473.646 361.605V357.509H475.694V365.445H473.886L473.726 364.101C473.481 364.571 473.123 364.944 472.654 365.221C472.195 365.499 471.657 365.637 471.038 365.637Z" fill="#182226"/>
<rect x="339.506" y="329.195" width="168.5" height="62.5" rx="31.25" stroke="#2C2F24" stroke-width="1.5"/>
</svg>
